<svg data-v-423bf9ae="" xmlns="http://www.w3.org/2000/svg" viewBox="0 0 721 90" class="iconLeftSlogan"><!----><!----><!----><g data-v-423bf9ae="" id="40e72419-96b3-4658-a932-1b114e53cee5" fill="white" transform="matrix(6.072874423584482,0,0,6.072874423584482,215.0762882708677,-17.793523181766375)"><path d="M1.47 3.62L0.11 4.61L0.21 4.81Q0.57 4.79 0.62 5.77L0.62 5.77L0.62 11.20Q0.63 12.36 1.24 12.71L1.24 12.71L2.49 11.82Q3.03 11.44 3.50 12.03Q3.98 12.63 4.57 12.73L4.57 12.73L5.92 11.68L5.79 11.46Q5.46 11.46 5.31 11.28Q5.17 11.10 4.78 10.65Q4.40 10.21 3.73 10.29L3.73 10.29L2.37 11.44Q2.24 11.01 2.25 10.62L2.25 10.62L2.24 5.13Q2.16 3.93 1.47 3.62L1.47 3.62ZM7.33 3.68L5.97 4.86Q6.60 5.30 6.93 5.91L6.93 5.91Q8.08 5.15 8.22 4.96Q8.36 4.76 8.15 4.31Q7.94 3.86 7.33 3.68L7.33 3.68ZM6.18 7.76Q6.76 7.43 6.56 9.23L6.56 9.23Q6.53 11.37 6.58 11.88Q6.62 12.39 7.18 12.72L7.18 12.72L8.54 11.45L8.55 11.27Q8.18 11.29 8.09 10.76Q8.00 10.23 8.04 8.94Q8.08 7.65 8.06 7.25Q8.05 6.85 7.69 6.45L7.69 6.45L6.07 7.57L6.18 7.76ZM11.14 3.70L9.90 4.68Q10.30 4.64 10.12 6.90L10.12 6.90L9.68 6.91L8.70 8.26L8.91 8.45Q9.23 8.09 10.08 8.13L10.08 8.13Q9.96 11.08 10.09 11.67Q10.21 12.25 10.89 12.72L10.89 12.72Q11.83 12.24 13.14 11.16L13.14 11.16L13.02 10.63Q11.55 11.38 11.46 10.75Q11.38 10.13 11.44 8.13L11.44 8.13L12.30 8.13L13.19 7.02L13.14 6.88L11.47 6.86L11.55 4.57Q11.47 3.98 11.14 3.70L11.14 3.70ZM15.72 3.70L14.47 4.68Q14.88 4.64 14.70 6.90L14.70 6.90L14.25 6.91L13.27 8.26L13.48 8.45Q13.80 8.09 14.66 8.13L14.66 8.13Q14.53 11.08 14.66 11.67Q14.79 12.25 15.46 12.72L15.46 12.72Q16.40 12.24 17.71 11.16L17.71 11.16L17.59 10.63Q16.12 11.38 16.03 10.75Q15.95 10.13 16.02 8.13L16.02 8.13L16.87 8.13L17.77 7.02L17.71 6.88L16.04 6.86L16.12 4.57Q16.04 3.98 15.72 3.70L15.72 3.70ZM19.28 3.24L18.11 4.21Q18.28 4.54 18.31 5.11L18.31 5.11Q18.24 11.51 18.35 12.01Q18.46 12.50 18.99 12.81L18.99 12.81L20.74 11.55L20.54 11.33Q20.08 11.43 19.85 11.03Q19.63 10.62 19.71 4.07L19.71 4.07Q19.62 3.51 19.28 3.24L19.28 3.24ZM24.13 6.60Q23.06 6.43 22.13 7.26Q21.21 8.09 20.95 9.20Q20.69 10.31 21.11 11.26Q21.53 12.22 22.67 12.62L22.67 12.62Q23.60 12.93 24.60 12.18Q25.61 11.43 25.92 10.77L25.92 10.77L25.72 10.61Q24.34 11.56 23.52 11.24Q22.70 10.92 22.56 10.51L22.56 10.51L24.04 9.54Q25.48 8.65 25.34 7.70Q25.20 6.76 24.13 6.60ZM22.04 8.64Q22.03 8.14 22.40 7.78Q22.77 7.41 23.38 7.78Q23.99 8.15 23.89 8.76Q23.80 9.37 22.35 10.14L22.35 10.14Q22.20 9.80 22.13 9.47Q22.06 9.14 22.04 8.64ZM29.69 3.61L28.74 5.03L28.88 5.14Q29.24 4.83 31.75 4.96L31.75 4.96Q31.40 5.34 31.12 5.67L31.12 5.67L31.14 11.51Q31.39 12.56 32.25 12.74L32.25 12.74L33.40 11.70L33.30 11.46Q32.77 11.48 32.66 10.42L32.66 10.42L32.68 4.94L34.11 4.94L35.32 3.75L35.20 3.61L29.69 3.61ZM37.53 6.49Q36.38 7.24 35.91 7.80Q35.43 8.35 35.24 8.92Q35.05 9.48 35.17 10.33Q35.30 11.18 36.17 11.96Q37.04 12.75 37.56 12.75Q38.08 12.76 39.19 11.74L39.19 11.74Q39.62 11.35 39.95 10.91Q40.27 10.47 40.42 9.67Q40.58 8.87 40.16 7.90L40.16 7.90Q39.13 6.30 37.53 6.49L37.53 6.49ZM37.30 7.70Q38.17 7.83 38.68 8.81Q39.18 9.79 39.02 10.78Q38.85 11.76 37.97 11.29Q37.08 10.81 36.64 10.00Q36.20 9.19 36.32 8.37Q36.44 7.56 37.30 7.70ZM46.76 7.64L46.76 7.64L46.89 7.79Q47.69 7.17 48.35 8.09Q49.01 9.02 48.97 9.97Q48.93 10.92 48.33 11.48L48.33 11.48Q47.75 11.55 45.47 6.83L45.47 6.83Q45.32 6.42 44.93 6.67L44.93 6.67L43.61 7.97L43.67 8.09Q44.06 7.77 44.45 8.44L44.45 8.44L45.83 11.01L45.32 11.41Q45.11 11.79 42.53 6.82L42.53 6.82Q42.38 6.41 41.99 6.66L41.99 6.66L40.67 7.96L40.73 8.08Q41.12 7.77 41.51 8.43L41.51 8.43L43.56 12.28Q44.15 13.04 44.74 12.59Q45.33 12.14 46.03 11.39L46.03 11.39L46.50 12.29Q47.09 13.05 47.68 12.60Q48.27 12.15 48.77 11.56Q49.27 10.98 49.94 9.89Q50.61 8.80 50.05 7.68Q49.50 6.57 48.68 6.29Q47.87 6.01 46.76 7.64ZM52.31 6.42L50.63 7.64L50.79 7.87Q51.30 7.56 51.24 8.50L51.24 8.50Q51.17 11.46 51.26 11.91Q51.35 12.37 51.93 12.71L51.93 12.71L53.38 11.46L53.38 11.29Q52.92 11.40 52.79 10.78Q52.67 10.17 52.75 8.27L52.75 8.27Q53.62 7.48 54.23 7.71Q54.83 7.94 54.82 9.37L54.82 9.37Q54.79 11.42 54.84 11.91Q54.89 12.40 55.43 12.76L55.43 12.76L56.85 11.49L56.81 11.33Q56.46 11.44 56.34 10.81Q56.23 10.18 56.29 8.74L56.29 8.74Q56.34 7.86 56.15 7.33Q55.96 6.80 55.34 6.56Q54.71 6.31 54.18 6.57Q53.65 6.83 53.30 7.12Q52.96 7.40 52.77 7.62L52.77 7.62Q52.83 6.77 52.31 6.42L52.31 6.42ZM60.92 3.62L59.56 4.61L59.66 4.81Q60.03 4.79 60.07 5.77L60.07 5.77L60.07 11.20Q60.08 12.36 60.70 12.71L60.70 12.71L61.94 11.82Q62.48 11.44 62.96 12.03Q63.43 12.63 64.03 12.73L64.03 12.73L65.37 11.68L65.24 11.46Q64.91 11.46 64.76 11.28Q64.62 11.10 64.23 10.65Q63.85 10.21 63.18 10.29L63.18 10.29L61.82 11.44Q61.69 11.01 61.70 10.62L61.70 10.62L61.69 5.13Q61.61 3.93 60.92 3.62L60.92 3.62ZM68.62 6.49Q67.61 6.45 66.55 7.15Q65.48 7.85 66.10 9.02L66.10 9.02L67.62 8.13Q66.94 7.09 68.21 7.06Q69.47 7.03 69.31 8.76L69.31 8.76L67.10 8.80L65.40 10.71Q65.33 11.55 66.00 12.14Q66.66 12.73 67.32 12.70Q67.98 12.67 68.44 12.39Q68.91 12.10 69.36 11.57L69.36 11.57Q69.52 12.52 70.47 12.69L70.47 12.69L71.68 11.38L71.60 11.21Q71.05 11.33 70.90 10.58L70.90 10.58L70.90 8.16Q70.83 7.23 70.23 6.88Q69.62 6.53 68.62 6.49ZM66.79 9.88L69.30 9.88L69.30 11.11Q69.06 11.42 68.16 11.39Q67.27 11.35 66.54 10.12L66.54 10.12L66.79 9.88ZM73.40 2.93L71.98 3.90Q72.32 4.09 72.26 6.92Q72.21 9.76 72.30 10.51Q72.39 11.25 73.51 12.14Q74.63 13.02 75.44 12.50Q76.26 11.98 76.92 11.29Q77.59 10.60 77.76 9.51Q77.92 8.43 77.53 7.57Q77.14 6.71 75.99 6.51Q74.85 6.31 73.85 7.53L73.85 7.53Q73.92 3.88 73.73 3.42Q73.53 2.97 73.40 2.93L73.40 2.93ZM74.62 7.73Q75.15 7.65 75.64 8.03Q76.13 8.40 76.22 9.37Q76.30 10.34 75.82 11.52L75.82 11.52Q74.72 11.94 74.21 11.26Q73.69 10.58 73.89 8.12L73.89 8.12Q74.09 7.81 74.62 7.73ZM81.11 6.52Q80.40 6.63 79.95 6.92Q79.50 7.21 79.18 7.52Q78.86 7.84 78.70 8.41Q78.53 8.98 78.99 9.39Q79.44 9.80 80.49 10.02Q81.55 10.24 81.89 10.55Q82.24 10.87 82.27 11.14Q82.30 11.42 82.05 11.52Q81.80 11.61 81.29 11.54Q80.79 11.46 80.32 11.22Q79.85 10.99 79.52 10.65Q79.19 10.32 79.47 10.02L79.47 10.02L79.31 9.93L78.25 10.84Q78.13 11.20 78.53 11.67Q78.93 12.14 79.54 12.40Q80.16 12.66 80.80 12.70Q81.44 12.74 82.09 12.32Q82.73 11.90 83.03 11.35Q83.33 10.81 83.27 10.26Q83.21 9.71 82.85 9.30Q82.49 8.88 81.31 8.55Q80.13 8.22 79.94 7.84Q79.75 7.45 80.24 7.38Q80.72 7.31 81.38 7.63Q82.04 7.96 81.82 8.25L81.82 8.25L81.91 8.35L82.93 7.38Q82.82 6.92 82.32 6.67Q81.82 6.41 81.11 6.52Z"></path></g><!----><g data-v-423bf9ae="" id="60785e20-3127-4c7f-b9a7-17443ea0ca9d" transform="matrix(2.382970092982756,0,0,2.382970092982756,-19.726972497735588,-103.38047404860265)" stroke="none" fill="white"><path d="M70.803 43.66l-7.768 7.768H48.928v11.607h4.107v13.75h-15V63.572h6.25L27.322 50.715 8.572 63.572h6.606v13.213h-4.285v4.643h78.392v-4.643h-3.213V63.572h4.643L70.803 43.66zM56.785 64.107h10v7.32h-10v-7.32zm11.965 0h14.643v7.32H68.75v-7.32zm-50.715 1.428h8.75v6.43h-8.75v-6.43z" stroke-width="2"></path></g><!----><g data-v-423bf9ae="" id="f352dccf-f168-4efc-b3f8-0f9021fc3770" fill="white" transform="matrix(0.466014680103087,0,0,0.466014680103087,215.99494198473525,59.684926859952675)"><path d="M4.82 5.50Q5.27 4.74 5.48 3.53L5.48 3.53Q5.71 2.15 5.22 1.57L5.22 1.57Q4.93 1.22 4.18 1.27L4.18 1.27Q3.24 1.33 2.34 1.85L2.34 1.85Q1.09 2.59 0.49 4.34L0.49 4.34Q-0.13 6.10 0.49 7.18L0.49 7.18Q0.78 7.68 2.15 8.17L2.15 8.17Q2.72 8.37 2.93 8.48L2.93 8.48Q3.36 8.74 3.45 9.11L3.45 9.11Q3.55 9.50 3.21 10.17L3.21 10.17Q3.03 10.51 2.75 10.76L2.75 10.76Q2.63 10.87 2.47 10.97L2.47 10.97Q2.40 11.02 2.38 11.03L2.38 11.03Q2.32 11.07 2.26 11.09L2.26 11.09Q2.35 11.05 2.23 11.10L2.23 11.10Q2.24 11.10 2.30 11.09L2.30 11.09Q2.26 11.09 2.21 11.09L2.21 11.09Q2.20 11.10 2.11 11.09L2.11 11.09Q2.06 11.09 1.91 11.05L1.91 11.05Q1.55 10.97 1.25 10.64L1.25 10.64Q1.03 10.39 0.94 9.93L0.94 9.93Q0.84 9.44 1.07 9.28L1.07 9.28Q1.26 9.13 1.24 9.06L1.24 9.06Q1.22 8.97 0.98 8.96L0.98 8.96Q0.36 8.95-0.05 9.24L-0.05 9.24Q-0.44 9.53-0.51 9.86L-0.51 9.86Q-0.59 10.20-0.44 10.62L-0.44 10.62Q-0.16 11.36 0.70 11.61L0.70 11.61Q1.59 11.87 2.86 11.37L2.86 11.37Q3.88 10.96 4.44 10.24L4.44 10.24Q4.82 9.76 4.91 9.24L4.91 9.24Q5.01 8.62 4.63 8.23L4.63 8.23Q4.36 7.96 3.80 7.75L3.80 7.75Q3.65 7.70 3.34 7.59L3.34 7.59Q3.04 7.50 2.91 7.44L2.91 7.44Q2.38 7.23 2.10 6.97L2.10 6.97Q1.80 6.69 1.70 5.96L1.70 5.96Q1.50 4.53 2.45 2.97L2.45 2.97Q2.86 2.29 3.37 1.95L3.37 1.95Q3.42 1.91 3.51 1.86L3.51 1.86Q3.51 1.86 3.56 1.84L3.56 1.84Q3.55 1.84 3.59 1.83L3.59 1.83Q3.56 1.84 3.60 1.83L3.60 1.83Q3.53 1.85 3.45 1.85L3.45 1.85Q3.47 1.85 3.46 1.85L3.46 1.85L3.48 1.85Q3.53 1.86 3.62 1.89L3.62 1.89Q3.63 1.89 3.73 1.96L3.73 1.96Q3.79 2.01 3.83 2.06L3.83 2.06Q3.95 2.20 4.02 2.45L4.02 2.45Q4.14 2.84 4.07 3.49L4.07 3.49Q3.95 4.81 3.38 5.76L3.38 5.76Q3.29 5.90 3.60 5.91L3.60 5.91Q3.79 5.92 3.96 5.89L3.96 5.89Q4.66 5.76 4.82 5.50L4.82 5.50ZM19.15 2.21Q19.11 2.05 18.55 2.15L18.55 2.15Q17.86 2.28 17.69 2.54L17.69 2.54Q16.82 4.03 15.88 6.51L15.88 6.51L15.88 6.41Q15.88 5.55 15.72 2.12L15.72 2.12Q15.71 2.03 15.48 2.02L15.48 2.02Q15.33 1.92 14.92 2.00L14.92 2.00Q14.21 2.13 14.06 2.39L14.06 2.39Q11.93 6.30 11.32 11.14L11.32 11.14Q11.31 11.27 11.69 11.23L11.69 11.23Q11.94 11.21 12.11 11.16L12.11 11.16Q12.76 10.99 12.78 10.75L12.78 10.75Q13.19 7.51 14.36 4.58L14.36 4.58Q14.41 5.81 14.42 6.71L14.42 6.71Q14.42 8.26 14.34 8.86L14.34 8.86Q14.16 10.15 14.15 10.99L14.15 10.99Q14.15 11.20 14.83 11.03L14.83 11.03Q15.51 10.86 15.60 10.66L15.60 10.66Q16.08 9.61 16.80 7.67L16.80 7.67Q17.58 5.54 17.95 4.66L17.95 4.66Q17.99 5.91 17.75 7.85L17.75 7.85Q17.42 10.57 17.38 11.04L17.38 11.04Q17.38 11.12 17.60 11.12L17.60 11.12Q17.81 11.13 18.09 11.08L18.09 11.08Q18.82 10.94 18.85 10.65L18.85 10.65Q18.90 9.88 19.08 8.54L19.08 8.54Q19.27 7.03 19.33 6.43L19.33 6.43Q19.57 3.95 19.15 2.21L19.15 2.21ZM29.35 7.89Q29.25 7.90 28.35 7.84L28.35 7.84Q28.76 6.63 29.22 5.57L29.22 5.57Q29.38 5.18 29.93 3.95L29.93 3.95Q29.91 4.61 29.72 7.85L29.72 7.85Q29.55 7.87 29.35 7.89L29.35 7.89ZM31.17 1.18Q30.98 1.09 30.60 1.16L30.60 1.16Q29.96 1.27 29.74 1.55L29.74 1.55Q29.54 1.80 28.77 3.58L28.77 3.58Q28.63 3.90 28.27 4.70L28.27 4.70Q27.95 5.42 27.77 5.83L27.77 5.83Q27.36 6.79 26.98 7.86L26.98 7.86Q26.06 7.97 25.41 8.37L25.41 8.37Q25.23 8.48 25.26 8.58L25.26 8.58Q25.29 8.67 25.49 8.68L25.49 8.68Q26.01 8.70 26.48 8.43L26.48 8.43Q26.63 8.41 26.67 8.41L26.67 8.41Q26.74 8.41 26.80 8.41L26.80 8.41Q26.48 9.39 26.15 10.53L26.15 10.53Q26.09 10.79 26.74 10.67L26.74 10.67Q27.04 10.62 27.30 10.49L27.30 10.49Q27.57 10.37 27.60 10.27L27.60 10.27Q27.86 9.32 28.14 8.48L28.14 8.48Q28.43 8.50 28.63 8.47L28.63 8.47Q29.33 8.39 29.69 8.46L29.69 8.46Q29.58 10.55 29.58 12.02L29.58 12.02Q29.58 12.10 29.80 12.11L29.80 12.11Q30.02 12.12 30.31 12.06L30.31 12.06Q31.04 11.91 31.04 11.62L31.04 11.62Q31.04 9.90 31.25 6.45L31.25 6.45Q31.45 3.00 31.45 1.27L31.45 1.27Q31.45 1.18 31.17 1.18L31.17 1.18ZM41.30 11.33Q40.26 11.36 39.81 11.16L39.81 11.16Q40.67 6.57 41.78 2.08L41.78 2.08Q41.85 1.83 41.20 1.95L41.20 1.95Q40.90 2.00 40.65 2.12L40.65 2.12Q40.37 2.25 40.35 2.34L40.35 2.34Q39.22 6.83 38.36 11.47L38.36 11.47Q38.27 11.56 38.34 11.61L38.34 11.61Q38.34 11.63 38.34 11.70L38.34 11.70Q38.33 11.74 38.32 11.78L38.32 11.78Q38.30 11.94 38.94 11.83L38.94 11.83Q39.44 11.95 40.35 11.92L40.35 11.92Q40.95 11.91 41.38 11.65L41.38 11.65Q41.56 11.54 41.54 11.44L41.54 11.44Q41.51 11.33 41.30 11.33L41.30 11.33ZM51.23 11.33Q50.19 11.36 49.75 11.16L49.75 11.16Q50.60 6.57 51.71 2.08L51.71 2.08Q51.78 1.83 51.13 1.95L51.13 1.95Q50.83 2.00 50.58 2.12L50.58 2.12Q50.30 2.25 50.28 2.34L50.28 2.34Q49.16 6.83 48.30 11.47L48.30 11.47Q48.21 11.56 48.28 11.61L48.28 11.61Q48.28 11.63 48.27 11.70L48.27 11.70Q48.26 11.74 48.25 11.78L48.25 11.78Q48.23 11.94 48.88 11.83L48.88 11.83Q49.37 11.95 50.28 11.92L50.28 11.92Q50.89 11.91 51.31 11.65L51.31 11.65Q51.49 11.54 51.47 11.44L51.47 11.44Q51.44 11.33 51.23 11.33L51.23 11.33ZM71.18 11.33Q70.14 11.36 69.70 11.16L69.70 11.16Q70.55 6.57 71.67 2.08L71.67 2.08Q71.74 1.83 71.09 1.95L71.09 1.95Q70.79 2.00 70.53 2.12L70.53 2.12Q70.25 2.25 70.23 2.34L70.23 2.34Q69.11 6.83 68.25 11.47L68.25 11.47Q68.16 11.56 68.23 11.61L68.23 11.61Q68.23 11.63 68.22 11.70L68.22 11.70Q68.22 11.74 68.21 11.78L68.21 11.78Q68.19 11.94 68.83 11.83L68.83 11.83Q69.32 11.95 70.23 11.92L70.23 11.92Q70.84 11.91 71.26 11.65L71.26 11.65Q71.44 11.54 71.42 11.44L71.42 11.44Q71.39 11.33 71.18 11.33L71.18 11.33ZM81.53 7.89Q81.43 7.90 80.53 7.84L80.53 7.84Q80.94 6.63 81.40 5.57L81.40 5.57Q81.56 5.18 82.11 3.95L82.11 3.95Q82.09 4.61 81.90 7.85L81.90 7.85Q81.73 7.87 81.53 7.89L81.53 7.89ZM83.34 1.18Q83.16 1.09 82.78 1.16L82.78 1.16Q82.13 1.27 81.92 1.55L81.92 1.55Q81.72 1.80 80.94 3.58L80.94 3.58Q80.81 3.90 80.45 4.70L80.45 4.70Q80.13 5.42 79.95 5.83L79.95 5.83Q79.54 6.79 79.16 7.86L79.16 7.86Q78.24 7.97 77.59 8.37L77.59 8.37Q77.41 8.48 77.44 8.58L77.44 8.58Q77.46 8.67 77.67 8.68L77.67 8.68Q78.19 8.70 78.66 8.43L78.66 8.43Q78.80 8.41 78.85 8.41L78.85 8.41Q78.91 8.41 78.98 8.41L78.98 8.41Q78.65 9.39 78.33 10.53L78.33 10.53Q78.26 10.79 78.92 10.67L78.92 10.67Q79.22 10.62 79.47 10.49L79.47 10.49Q79.75 10.37 79.78 10.27L79.78 10.27Q80.04 9.32 80.32 8.48L80.32 8.48Q80.61 8.50 80.81 8.47L80.81 8.47Q81.51 8.39 81.87 8.46L81.87 8.46Q81.76 10.55 81.76 12.02L81.76 12.02Q81.76 12.10 81.98 12.11L81.98 12.11Q82.20 12.12 82.49 12.06L82.49 12.06Q83.22 11.91 83.22 11.62L83.22 11.62Q83.22 9.90 83.43 6.45L83.43 6.45Q83.62 3.00 83.62 1.27L83.62 1.27Q83.62 1.18 83.34 1.18L83.34 1.18ZM94.15 9.37Q94.06 9.50 93.80 9.70L93.80 9.70Q93.76 9.73 93.66 9.80L93.66 9.80Q93.60 9.84 93.55 9.87L93.55 9.87Q93.44 9.94 93.45 9.93L93.45 9.93Q93.36 9.97 93.24 10.03L93.24 10.03Q93.22 10.04 93.16 10.06L93.16 10.06Q93.15 10.07 93.05 10.11L93.05 10.11Q93.04 10.11 92.96 10.14L92.96 10.14Q92.89 10.16 92.88 10.17L92.88 10.17Q92.79 10.19 92.69 10.21L92.69 10.21Q92.66 10.23 92.52 10.25L92.52 10.25Q92.52 10.25 92.46 10.26L92.46 10.26Q92.49 10.26 92.35 10.27L92.35 10.27Q92.27 10.28 92.15 10.29L92.15 10.29Q92.18 10.29 92.00 10.29L92.00 10.29Q92.07 10.03 92.44 8.24L92.44 8.24Q92.76 8.20 93.03 8.05L93.03 8.05Q93.15 7.99 93.30 7.93L93.30 7.93Q93.30 7.92 93.31 7.92L93.31 7.92Q93.31 7.92 93.32 7.92L93.32 7.92Q93.40 7.88 93.52 7.84L93.52 7.84Q93.54 7.84 93.54 7.83L93.54 7.83L93.54 7.83Q93.56 7.83 93.63 7.81L93.63 7.81Q93.70 7.79 93.71 7.79L93.71 7.79Q93.75 7.79 93.79 7.78L93.79 7.78Q93.83 7.77 93.87 7.77L93.87 7.77Q93.87 7.77 93.88 7.77L93.88 7.77Q93.90 7.77 93.93 7.77L93.93 7.77Q93.96 7.77 93.97 7.77L93.97 7.77Q93.99 7.77 94.03 7.78L94.03 7.78Q94.15 7.81 94.26 7.88L94.26 7.88Q94.49 8.03 94.49 8.46L94.49 8.46Q94.49 8.93 94.15 9.37L94.15 9.37ZM93.78 6.15Q93.28 6.95 92.59 7.54L92.59 7.54Q92.74 6.95 93.00 6.02L93.00 6.02Q93.73 3.45 93.92 2.44L93.92 2.44Q94.44 2.95 94.50 3.83L94.50 3.83Q94.58 4.83 93.78 6.15L93.78 6.15ZM94.10 7.25Q94.71 6.67 95.17 5.95L95.17 5.95Q96.07 4.56 95.95 3.30L95.95 3.30Q95.83 2.15 94.83 1.62L94.83 1.62Q93.80 1.08 92.20 1.55L92.20 1.55Q91.47 1.76 91.53 1.96L91.53 1.96Q91.59 2.20 92.32 1.99L92.32 1.99Q92.50 1.93 92.45 1.95L92.45 1.95Q92.51 1.94 92.52 1.93L92.52 1.93Q92.53 1.93 92.54 1.93L92.54 1.93Q92.59 1.93 92.61 1.93L92.61 1.93Q92.59 1.97 92.59 2.02L92.59 2.02Q92.44 3.23 91.56 6.28L91.56 6.28Q91.21 7.50 91.02 8.38L91.02 8.38Q90.52 10.71 90.54 10.66L90.54 10.66Q90.48 10.84 90.84 10.83L90.84 10.83Q90.90 10.87 91.03 10.88L91.03 10.88Q92.57 10.93 94.19 10.16L94.19 10.16Q95.81 9.39 95.94 8.16L95.94 8.16Q96.08 6.88 94.10 7.25L94.10 7.25ZM103.84 10.27Q104.17 10.90 103.99 11.59L103.99 11.59Q103.82 12.24 103.26 12.70L103.26 12.70Q103.09 12.84 103.28 12.91L103.28 12.91Q103.43 12.95 103.60 12.93L103.60 12.93Q104.22 12.88 104.58 12.58L104.58 12.58Q105.21 12.07 105.42 11.35L105.42 11.35Q105.66 10.57 105.30 9.88L105.30 9.88Q105.16 9.63 104.45 9.86L104.45 9.86Q104.18 9.95 104.00 10.07L104.00 10.07Q103.80 10.19 103.84 10.27L103.84 10.27ZM125.97 9.37Q125.88 9.50 125.62 9.70L125.62 9.70Q125.58 9.73 125.48 9.80L125.48 9.80Q125.43 9.84 125.37 9.87L125.37 9.87Q125.26 9.94 125.27 9.93L125.27 9.93Q125.18 9.97 125.06 10.03L125.06 10.03Q125.04 10.04 124.98 10.06L124.98 10.06Q124.97 10.07 124.87 10.11L124.87 10.11Q124.86 10.11 124.78 10.14L124.78 10.14Q124.71 10.16 124.70 10.17L124.70 10.17Q124.61 10.19 124.51 10.21L124.51 10.21Q124.48 10.23 124.34 10.25L124.34 10.25Q124.34 10.25 124.28 10.26L124.28 10.26Q124.31 10.26 124.17 10.27L124.17 10.27Q124.09 10.28 123.97 10.29L123.97 10.29Q124.00 10.29 123.82 10.29L123.82 10.29Q123.89 10.03 124.26 8.24L124.26 8.24Q124.58 8.20 124.85 8.05L124.85 8.05Q124.97 7.99 125.12 7.93L125.12 7.93Q125.13 7.92 125.13 7.92L125.13 7.92Q125.13 7.92 125.14 7.92L125.14 7.92Q125.22 7.88 125.34 7.84L125.34 7.84Q125.36 7.84 125.36 7.83L125.36 7.83L125.36 7.83Q125.38 7.83 125.45 7.81L125.45 7.81Q125.52 7.79 125.53 7.79L125.53 7.79Q125.57 7.79 125.61 7.78L125.61 7.78Q125.65 7.77 125.69 7.77L125.69 7.77Q125.69 7.77 125.70 7.77L125.70 7.77Q125.72 7.77 125.75 7.77L125.75 7.77Q125.78 7.77 125.79 7.77L125.79 7.77Q125.81 7.77 125.85 7.78L125.85 7.78Q125.97 7.81 126.08 7.88L126.08 7.88Q126.31 8.03 126.31 8.46L126.31 8.46Q126.31 8.93 125.97 9.37L125.97 9.37ZM125.60 6.15Q125.10 6.95 124.41 7.54L124.41 7.54Q124.56 6.95 124.82 6.02L124.82 6.02Q125.56 3.45 125.74 2.44L125.74 2.44Q126.26 2.95 126.32 3.83L126.32 3.83Q126.40 4.83 125.60 6.15L125.60 6.15ZM125.92 7.25Q126.53 6.67 126.99 5.95L126.99 5.95Q127.89 4.56 127.77 3.30L127.77 3.30Q127.65 2.15 126.65 1.62L126.65 1.62Q125.62 1.08 124.02 1.55L124.02 1.55Q123.29 1.76 123.35 1.96L123.35 1.96Q123.42 2.20 124.14 1.99L124.14 1.99Q124.32 1.93 124.27 1.95L124.27 1.95Q124.33 1.94 124.34 1.93L124.34 1.93Q124.35 1.93 124.37 1.93L124.37 1.93Q124.41 1.93 124.43 1.93L124.43 1.93Q124.41 1.97 124.41 2.02L124.41 2.02Q124.26 3.23 123.38 6.28L123.38 6.28Q123.03 7.50 122.84 8.38L122.84 8.38Q122.34 10.71 122.36 10.66L122.36 10.66Q122.30 10.84 122.66 10.83L122.66 10.83Q122.72 10.87 122.85 10.88L122.85 10.88Q124.39 10.93 126.01 10.16L126.01 10.16Q127.63 9.39 127.76 8.16L127.76 8.16Q127.90 6.88 125.92 7.25L125.92 7.25ZM136.27 2.53Q136.03 3.62 135.41 6.79L135.41 6.79Q135.17 8.03 134.98 8.93L134.98 8.93Q134.59 10.78 134.59 10.91L134.59 10.91Q134.59 10.99 134.81 11.00L134.81 11.00Q135.03 11.01 135.31 10.96L135.31 10.96Q136.04 10.81 136.05 10.52L136.05 10.52Q136.06 10.23 136.21 9.62L136.21 9.62Q136.29 9.32 136.45 8.57L136.45 8.57Q136.62 7.77 136.88 6.44L136.88 6.44Q137.47 3.36 137.72 2.27L137.72 2.27Q137.77 2.02 137.13 2.13L137.13 2.13Q136.83 2.19 136.58 2.31L136.58 2.31Q136.29 2.44 136.27 2.53L136.27 2.53ZM147.49 7.83L147.49 7.83Q147.51 7.83 147.53 7.81L147.53 7.81Q147.51 7.83 147.49 7.83L147.49 7.83ZM149.05 1.67Q148.67 0.90 147.32 1.50L147.32 1.50Q146.75 1.75 146.19 2.55L146.19 2.55Q145.72 3.20 145.30 4.06L145.30 4.06Q144.38 5.91 144.09 8.21L144.09 8.21Q143.98 9.15 143.96 9.80L143.96 9.80Q143.94 10.74 144.38 11.05L144.38 11.05Q144.83 11.39 145.97 11.00L145.97 11.00Q146.62 10.77 147.21 10.19L147.21 10.19Q147.72 9.71 148.04 8.87L148.04 8.87Q148.18 8.48 148.24 8.11L148.24 8.11Q148.30 7.72 148.20 7.57L148.20 7.57Q148.02 7.29 147.35 7.43L147.35 7.43Q146.62 7.58 146.01 8.07L146.01 8.07Q145.83 8.21 146.04 8.27L146.04 8.27Q146.19 8.31 146.35 8.30L146.35 8.30Q146.58 8.28 146.81 8.21L146.81 8.21Q146.82 8.48 146.63 9.04L146.63 9.04Q146.44 9.59 146.18 9.99L146.18 9.99Q146.13 10.06 146.10 10.08L146.10 10.08Q146.00 10.21 145.90 10.31L145.90 10.31Q145.81 10.40 145.68 10.51L145.68 10.51Q145.63 10.45 145.58 10.36L145.58 10.36Q145.46 10.13 145.43 9.65L145.43 9.65Q145.41 9.36 145.52 8.16L145.52 8.16Q145.71 5.98 146.66 3.95L146.66 3.95Q147.18 2.84 147.66 2.21L147.66 2.21Q147.78 2.51 147.79 2.81L147.79 2.81Q147.81 3.19 147.62 3.34L147.62 3.34Q147.44 3.47 147.65 3.53L147.65 3.53Q147.80 3.58 147.96 3.57L147.96 3.57Q148.56 3.51 148.93 3.22L148.93 3.22Q149.24 2.98 149.24 2.48L149.24 2.48Q149.24 2.06 149.05 1.67L149.05 1.67ZM167.08 2.53Q166.83 3.62 166.22 6.79L166.22 6.79Q165.98 8.03 165.79 8.93L165.79 8.93Q165.40 10.78 165.39 10.91L165.39 10.91Q165.39 10.99 165.61 11.00L165.61 11.00Q165.83 11.01 166.11 10.96L166.11 10.96Q166.84 10.81 166.85 10.52L166.85 10.52Q166.86 10.23 167.02 9.62L167.02 9.62Q167.09 9.32 167.25 8.57L167.25 8.57Q167.42 7.77 167.68 6.44L167.68 6.44Q168.27 3.36 168.52 2.27L168.52 2.27Q168.57 2.02 167.93 2.13L167.93 2.13Q167.63 2.19 167.38 2.31L167.38 2.31Q167.10 2.44 167.08 2.53L167.08 2.53ZM180.01 3.48Q179.97 1.70 179.12 1.01L179.12 1.01Q178.66 0.64 177.76 0.68L177.76 0.68Q176.76 0.72 175.51 1.40L175.51 1.40Q175.33 1.50 175.36 1.60L175.36 1.60Q175.40 1.70 175.59 1.71L175.59 1.71Q176.09 1.72 176.63 1.44L176.63 1.44Q176.64 1.43 176.66 1.42L176.66 1.42Q176.70 1.39 176.78 1.35L176.78 1.35Q176.83 1.34 176.90 1.31L176.90 1.31Q176.93 1.29 177.04 1.26L177.04 1.26L177.04 1.26Q177.05 1.25 177.05 1.26L177.05 1.26Q177.06 1.25 177.08 1.25L177.08 1.25Q177.11 1.25 177.15 1.26L177.15 1.26Q177.16 1.26 177.18 1.26L177.18 1.26Q177.23 1.26 177.23 1.26L177.23 1.26Q177.31 1.28 177.41 1.31L177.41 1.31Q177.42 1.31 177.42 1.31L177.42 1.31Q177.42 1.31 177.43 1.31L177.43 1.31Q177.45 1.33 177.50 1.35L177.50 1.35Q177.56 1.37 177.64 1.43L177.64 1.43Q177.77 1.51 177.90 1.65L177.90 1.65Q178.10 1.85 178.25 2.23L178.25 2.23Q178.85 3.66 178.32 6.11L178.32 6.11Q177.97 7.70 177.26 8.97L177.26 8.97Q176.90 9.60 176.50 10.03L176.50 10.03Q176.32 10.22 176.11 10.39L176.11 10.39Q177.19 5.68 177.66 1.78L177.66 1.78Q177.67 1.71 177.45 1.70L177.45 1.70Q177.23 1.69 176.96 1.74L176.96 1.74Q176.23 1.87 176.20 2.17L176.20 2.17Q175.72 6.19 174.55 11.16L174.55 11.16Q174.49 11.42 175.13 11.30L175.13 11.30Q175.43 11.25 175.68 11.12L175.68 11.12Q175.88 11.03 175.94 10.97L175.94 10.97Q176.21 10.93 176.59 10.77L176.59 10.77Q178.16 10.12 179.14 7.78L179.14 7.78Q180.05 5.63 180.01 3.48L180.01 3.48ZM191.25 1.42Q190.54 1.19 189.36 1.57L189.36 1.57Q187.84 2.06 187.28 3.77L187.28 3.77Q186.94 4.83 187.11 6.11L187.11 6.11Q187.20 6.76 187.47 7.16L187.47 7.16Q187.05 7.38 186.76 7.70L186.76 7.70Q185.76 8.80 185.87 10.01L185.87 10.01Q185.94 10.70 186.42 11.11L186.42 11.11Q186.81 11.44 187.64 11.42L187.64 11.42Q188.47 11.39 189.18 10.95L189.18 10.95Q189.93 10.49 190.23 9.76L190.23 9.76Q190.29 9.61 190.01 9.60L190.01 9.60Q189.84 9.59 189.65 9.63L189.65 9.63Q188.90 9.76 188.79 10.02L188.79 10.02Q188.60 10.51 188.25 10.80L188.25 10.80Q188.23 10.81 188.22 10.82L188.22 10.82Q188.17 10.81 188.17 10.81L188.17 10.81Q188.10 10.79 188.02 10.75L188.02 10.75Q187.85 10.68 187.69 10.52L187.69 10.52Q187.41 10.23 187.33 9.63L187.33 9.63Q187.24 8.83 187.87 7.86L187.87 7.86Q187.95 7.74 188.05 7.62L188.05 7.62Q188.26 7.70 188.54 7.72L188.54 7.72Q188.94 7.74 189.43 7.51L189.43 7.51Q189.85 7.32 189.70 7.18L189.70 7.18Q189.41 6.90 188.99 6.84L188.99 6.84Q188.95 6.79 188.91 6.75L188.91 6.75Q188.71 6.45 188.60 5.89L188.60 5.89Q188.41 4.89 188.59 4.00L188.59 4.00Q188.86 2.70 189.62 2.04L189.62 2.04Q189.68 2.00 189.77 1.93L189.77 1.93Q189.78 1.93 189.78 1.93L189.78 1.93Q189.91 1.94 189.89 1.93L189.89 1.93Q190.47 2.02 190.35 2.62L190.35 2.62Q190.31 2.86 190.93 2.75L190.93 2.75Q191.24 2.69 191.50 2.58L191.50 2.58Q191.78 2.45 191.80 2.36L191.80 2.36Q191.93 1.63 191.25 1.42L191.25 1.42ZM200.42 7.89Q200.32 7.90 199.42 7.84L199.42 7.84Q199.83 6.63 200.29 5.57L200.29 5.57Q200.45 5.18 201.00 3.95L201.00 3.95Q200.98 4.61 200.79 7.85L200.79 7.85Q200.62 7.87 200.42 7.89L200.42 7.89ZM202.23 1.18Q202.05 1.09 201.67 1.16L201.67 1.16Q201.02 1.27 200.81 1.55L200.81 1.55Q200.61 1.80 199.83 3.58L199.83 3.58Q199.70 3.90 199.34 4.70L199.34 4.70Q199.02 5.42 198.84 5.83L198.84 5.83Q198.43 6.79 198.05 7.86L198.05 7.86Q197.13 7.97 196.48 8.37L196.48 8.37Q196.30 8.48 196.33 8.58L196.33 8.58Q196.36 8.67 196.56 8.68L196.56 8.68Q197.08 8.70 197.55 8.43L197.55 8.43Q197.70 8.41 197.74 8.41L197.74 8.41Q197.80 8.41 197.87 8.41L197.87 8.41Q197.54 9.39 197.22 10.53L197.22 10.53Q197.16 10.79 197.81 10.67L197.81 10.67Q198.11 10.62 198.37 10.49L198.37 10.49Q198.64 10.37 198.67 10.27L198.67 10.27Q198.93 9.32 199.21 8.48L199.21 8.48Q199.50 8.50 199.70 8.47L199.70 8.47Q200.40 8.39 200.76 8.46L200.76 8.46Q200.65 10.55 200.65 12.02L200.65 12.02Q200.65 12.10 200.87 12.11L200.87 12.11Q201.09 12.12 201.38 12.06L201.38 12.06Q202.11 11.91 202.11 11.62L202.11 11.62Q202.11 9.90 202.32 6.45L202.32 6.45Q202.51 3.00 202.51 1.27L202.51 1.27Q202.51 1.18 202.23 1.18L202.23 1.18ZM215.04 5.50Q215.50 4.74 215.70 3.53L215.70 3.53Q215.94 2.15 215.44 1.57L215.44 1.57Q215.15 1.22 214.40 1.27L214.40 1.27Q213.47 1.33 212.57 1.85L212.57 1.85Q211.32 2.59 210.71 4.34L210.71 4.34Q210.10 6.10 210.71 7.18L210.71 7.18Q211.00 7.68 212.38 8.17L212.38 8.17Q212.95 8.37 213.15 8.48L213.15 8.48Q213.59 8.74 213.68 9.11L213.68 9.11Q213.77 9.50 213.43 10.17L213.43 10.17Q213.25 10.51 212.97 10.76L212.97 10.76Q212.86 10.87 212.70 10.97L212.70 10.97Q212.63 11.02 212.60 11.03L212.60 11.03Q212.54 11.07 212.48 11.09L212.48 11.09Q212.58 11.05 212.45 11.10L212.45 11.10Q212.46 11.10 212.52 11.09L212.52 11.09Q212.48 11.09 212.43 11.09L212.43 11.09Q212.43 11.10 212.33 11.09L212.33 11.09Q212.28 11.09 212.13 11.05L212.13 11.05Q211.78 10.97 211.48 10.64L211.48 10.64Q211.26 10.39 211.17 9.93L211.17 9.93Q211.07 9.44 211.29 9.28L211.29 9.28Q211.49 9.13 211.47 9.06L211.47 9.06Q211.44 8.97 211.21 8.96L211.21 8.96Q210.59 8.95 210.18 9.24L210.18 9.24Q209.79 9.53 209.71 9.86L209.71 9.86Q209.63 10.20 209.79 10.62L209.79 10.62Q210.06 11.36 210.93 11.61L210.93 11.61Q211.82 11.87 213.09 11.37L213.09 11.37Q214.10 10.96 214.67 10.24L214.67 10.24Q215.04 9.76 215.13 9.24L215.13 9.24Q215.24 8.62 214.85 8.23L214.85 8.23Q214.59 7.96 214.03 7.75L214.03 7.75Q213.88 7.70 213.56 7.59L213.56 7.59Q213.27 7.50 213.14 7.44L213.14 7.44Q212.60 7.23 212.32 6.97L212.32 6.97Q212.02 6.69 211.92 5.96L211.92 5.96Q211.72 4.53 212.67 2.97L212.67 2.97Q213.09 2.29 213.60 1.95L213.60 1.95Q213.64 1.91 213.74 1.86L213.74 1.86Q213.73 1.86 213.79 1.84L213.79 1.84Q213.77 1.84 213.81 1.83L213.81 1.83Q213.79 1.84 213.83 1.83L213.83 1.83Q213.75 1.85 213.68 1.85L213.68 1.85Q213.70 1.85 213.68 1.85L213.68 1.85L213.71 1.85Q213.76 1.86 213.84 1.89L213.84 1.89Q213.86 1.89 213.95 1.96L213.95 1.96Q214.02 2.01 214.06 2.06L214.06 2.06Q214.18 2.20 214.25 2.45L214.25 2.45Q214.36 2.84 214.30 3.49L214.30 3.49Q214.18 4.81 213.60 5.76L213.60 5.76Q213.51 5.90 213.82 5.91L213.82 5.91Q214.02 5.92 214.18 5.89L214.18 5.89Q214.88 5.76 215.04 5.50L215.04 5.50ZM258.76 2.35Q257.80 2.17 256.80 2.15L256.80 2.15Q256.70 2.03 256.22 2.11L256.22 2.11Q256.13 2.13 256.01 2.16L256.01 2.16Q254.95 2.22 253.91 2.46L253.91 2.46Q253.17 2.63 253.24 2.88L253.24 2.88Q253.29 3.08 254.01 2.91L254.01 2.91Q254.02 2.91 254.03 2.90L254.03 2.90Q254.04 2.90 254.06 2.89L254.06 2.89Q254.13 2.88 254.29 2.85L254.29 2.85Q254.45 2.82 254.68 2.80L254.68 2.80Q254.97 2.76 255.29 2.75L255.29 2.75Q253.88 7.40 253.48 10.96L253.48 10.96Q253.48 11.02 253.70 11.03L253.70 11.03Q253.91 11.04 254.19 10.99L254.19 10.99Q254.92 10.86 254.95 10.56L254.95 10.56Q255.32 7.19 256.64 2.78L256.64 2.78Q257.11 2.82 257.55 2.91L257.55 2.91Q257.99 2.99 258.58 2.72L258.58 2.72Q258.73 2.65 258.83 2.54L258.83 2.54Q258.97 2.39 258.76 2.35L258.76 2.35ZM268.41 5.31Q268.26 6.24 267.37 7.18L267.37 7.18Q267.18 7.38 266.94 7.58L266.94 7.58Q266.88 7.63 266.81 7.68L266.81 7.68Q266.59 7.59 266.34 7.58L266.34 7.58Q266.90 4.74 267.05 2.66L267.05 2.66Q267.31 2.80 267.55 2.99L267.55 2.99Q268.06 3.39 268.30 4.03L268.30 4.03Q268.52 4.65 268.41 5.31L268.41 5.31ZM265.44 2.40Q265.44 2.40 265.45 2.39L265.45 2.39Q265.45 2.40 265.44 2.40L265.44 2.40ZM270.38 11.42Q269.64 10.88 268.11 8.99L268.11 8.99Q267.44 8.17 267.33 8.05L267.33 8.05Q267.78 7.84 268.21 7.50L268.21 7.50Q269.42 6.56 269.77 5.41L269.77 5.41Q270.02 4.60 269.81 3.84L269.81 3.84Q269.60 3.07 268.98 2.53L268.98 2.53Q267.74 1.46 265.67 1.88L265.67 1.88Q265.54 1.91 265.34 1.96L265.34 1.96Q264.60 2.14 264.66 2.37L264.66 2.37Q264.72 2.58 265.43 2.40L265.43 2.40Q265.50 2.39 265.55 2.38L265.55 2.38Q265.59 2.37 265.62 2.37L265.62 2.37Q265.51 5.11 264.27 10.79L264.27 10.79Q264.22 11.04 264.85 10.92L264.85 10.92Q265.16 10.87 265.41 10.75L265.41 10.75Q265.69 10.62 265.71 10.53L265.71 10.53Q266.01 9.17 266.10 8.72L266.10 8.72Q266.11 8.72 266.11 8.72L266.11 8.72Q266.12 8.72 266.12 8.72L266.12 8.72Q266.23 8.85 266.91 9.70L266.91 9.70Q268.23 11.34 268.99 11.92L268.99 11.92Q269.22 12.09 269.94 11.83L269.94 11.83Q270.12 11.76 270.27 11.67L270.27 11.67Q270.51 11.52 270.38 11.42L270.38 11.42ZM279.62 7.89Q279.52 7.90 278.62 7.84L278.62 7.84Q279.03 6.63 279.49 5.57L279.49 5.57Q279.65 5.18 280.20 3.95L280.20 3.95Q280.18 4.61 279.99 7.85L279.99 7.85Q279.82 7.87 279.62 7.89L279.62 7.89ZM281.44 1.18Q281.25 1.09 280.87 1.16L280.87 1.16Q280.23 1.27 280.01 1.55L280.01 1.55Q279.82 1.80 279.04 3.58L279.04 3.58Q278.90 3.90 278.54 4.70L278.54 4.70Q278.22 5.42 278.04 5.83L278.04 5.83Q277.63 6.79 277.25 7.86L277.25 7.86Q276.33 7.97 275.68 8.37L275.68 8.37Q275.50 8.48 275.53 8.58L275.53 8.58Q275.56 8.67 275.76 8.68L275.76 8.68Q276.28 8.70 276.75 8.43L276.75 8.43Q276.90 8.41 276.94 8.41L276.94 8.41Q277.01 8.41 277.07 8.41L277.07 8.41Q276.75 9.39 276.42 10.53L276.42 10.53Q276.36 10.79 277.01 10.67L277.01 10.67Q277.31 10.62 277.57 10.49L277.57 10.49Q277.84 10.37 277.87 10.27L277.87 10.27Q278.13 9.32 278.41 8.48L278.41 8.48Q278.70 8.50 278.90 8.47L278.90 8.47Q279.60 8.39 279.96 8.46L279.96 8.46Q279.85 10.55 279.85 12.02L279.85 12.02Q279.85 12.10 280.08 12.11L280.08 12.11Q280.29 12.12 280.58 12.06L280.58 12.06Q281.31 11.91 281.31 11.62L281.31 11.62Q281.31 9.90 281.52 6.45L281.52 6.45Q281.72 3.00 281.72 1.27L281.72 1.27Q281.72 1.18 281.44 1.18L281.44 1.18ZM295.09 0.74Q294.79 0.79 294.53 0.91L294.53 0.91Q294.26 1.04 294.23 1.13L294.23 1.13Q293.35 3.96 292.73 7.39L292.73 7.39Q292.65 6.88 292.53 6.21L292.53 6.21Q292.24 4.44 292.19 4.05L292.19 4.05Q292.04 2.77 291.85 2.37L291.85 2.37Q291.85 2.37 291.83 2.35L291.83 2.35L291.84 2.34Q291.84 2.34 291.84 2.33L291.84 2.33Q291.88 2.08 291.25 2.20L291.25 2.20Q290.95 2.26 290.70 2.37L290.70 2.37Q290.41 2.51 290.40 2.60L290.40 2.60Q290.21 3.71 289.57 6.73L289.57 6.73Q289.02 9.34 288.82 10.89L288.82 10.89Q288.80 11.01 289.19 10.98L289.19 10.98Q289.44 10.96 289.61 10.91L289.61 10.91Q290.25 10.74 290.28 10.50L290.28 10.50Q290.48 8.97 291.03 6.38L291.03 6.38Q291.06 6.54 291.07 6.61L291.07 6.61Q291.29 7.90 291.46 8.95L291.46 8.95Q291.72 10.45 291.95 11.09L291.95 11.09Q292.00 11.24 292.35 11.21L292.35 11.21Q292.66 11.18 293.00 11.05L293.00 11.05Q293.58 10.89 293.62 10.65L293.62 10.65Q294.39 5.00 295.67 0.87L295.67 0.87Q295.76 0.62 295.09 0.74L295.09 0.74ZM306.73 5.50Q307.18 4.74 307.38 3.53L307.38 3.53Q307.62 2.15 307.13 1.57L307.13 1.57Q306.84 1.22 306.09 1.27L306.09 1.27Q305.15 1.33 304.25 1.85L304.25 1.85Q303.00 2.59 302.39 4.34L302.39 4.34Q301.78 6.10 302.39 7.18L302.39 7.18Q302.69 7.68 304.06 8.17L304.06 8.17Q304.63 8.37 304.83 8.48L304.83 8.48Q305.27 8.74 305.36 9.11L305.36 9.11Q305.46 9.50 305.12 10.17L305.12 10.17Q304.94 10.51 304.66 10.76L304.66 10.76Q304.54 10.87 304.38 10.97L304.38 10.97Q304.31 11.02 304.29 11.03L304.29 11.03Q304.23 11.07 304.17 11.09L304.17 11.09Q304.26 11.05 304.14 11.10L304.14 11.10Q304.14 11.10 304.21 11.09L304.21 11.09Q304.17 11.09 304.12 11.09L304.12 11.09Q304.11 11.10 304.01 11.09L304.01 11.09Q303.97 11.09 303.82 11.05L303.82 11.05Q303.46 10.97 303.16 10.64L303.16 10.64Q302.94 10.39 302.85 9.93L302.85 9.93Q302.75 9.44 302.98 9.28L302.98 9.28Q303.17 9.13 303.15 9.06L303.15 9.06Q303.13 8.97 302.89 8.96L302.89 8.96Q302.27 8.95 301.86 9.24L301.86 9.24Q301.47 9.53 301.40 9.86L301.40 9.86Q301.31 10.20 301.47 10.62L301.47 10.62Q301.75 11.36 302.61 11.61L302.61 11.61Q303.50 11.87 304.77 11.37L304.77 11.37Q305.79 10.96 306.35 10.24L306.35 10.24Q306.73 9.76 306.82 9.24L306.82 9.24Q306.92 8.62 306.54 8.23L306.54 8.23Q306.27 7.96 305.71 7.75L305.71 7.75Q305.56 7.70 305.25 7.59L305.25 7.59Q304.95 7.50 304.82 7.44L304.82 7.44Q304.29 7.23 304.01 6.97L304.01 6.97Q303.71 6.69 303.60 5.96L303.60 5.96Q303.41 4.53 304.36 2.97L304.36 2.97Q304.77 2.29 305.28 1.95L305.28 1.95Q305.33 1.91 305.42 1.86L305.42 1.86Q305.42 1.86 305.47 1.84L305.47 1.84Q305.46 1.84 305.50 1.83L305.50 1.83Q305.47 1.84 305.51 1.83L305.51 1.83Q305.44 1.85 305.36 1.85L305.36 1.85Q305.38 1.85 305.37 1.85L305.37 1.85L305.39 1.85Q305.44 1.86 305.53 1.89L305.53 1.89Q305.54 1.89 305.63 1.96L305.63 1.96Q305.70 2.01 305.74 2.06L305.74 2.06Q305.86 2.20 305.93 2.45L305.93 2.45Q306.04 2.84 305.98 3.49L305.98 3.49Q305.86 4.81 305.29 5.76L305.29 5.76Q305.20 5.90 305.50 5.91L305.50 5.91Q305.70 5.92 305.87 5.89L305.87 5.89Q306.56 5.76 306.73 5.50L306.73 5.50ZM319.65 1.59Q318.55 1.45 316.87 1.75L316.87 1.75Q316.87 1.74 316.88 1.70L316.88 1.70Q316.89 1.66 316.89 1.64L316.89 1.64Q316.96 1.39 316.31 1.50L316.31 1.50Q316.01 1.56 315.76 1.67L315.76 1.67Q315.49 1.80 315.46 1.90L315.46 1.90Q315.46 1.88 315.41 2.08L315.41 2.08Q315.22 2.18 315.16 2.30L315.16 2.30Q315.09 2.43 315.31 2.45L315.31 2.45Q314.04 7.25 313.53 10.98L313.53 10.98Q313.52 11.10 313.90 11.07L313.90 11.07Q314.15 11.05 314.32 11.00L314.32 11.00Q314.96 10.83 314.99 10.59L314.99 10.59Q315.21 8.95 315.57 7.16L315.57 7.16Q315.51 7.17 316.57 7.09L316.57 7.09Q317.21 7.05 317.54 6.75L317.54 6.75Q317.70 6.60 317.51 6.54L317.51 6.54Q317.38 6.50 317.20 6.51L317.20 6.51Q316.07 6.60 315.68 6.66L315.68 6.66Q316.09 4.65 316.74 2.24L316.74 2.24Q317.75 2.06 318.45 2.15L318.45 2.15Q318.92 2.21 319.46 1.96L319.46 1.96Q319.61 1.89 319.72 1.78L319.72 1.78Q319.87 1.62 319.65 1.59L319.65 1.59ZM328.15 5.20Q328.03 6.64 327.76 7.92L327.76 7.92Q327.35 9.88 326.58 10.64L326.58 10.64Q326.49 10.55 326.42 10.38L326.42 10.38Q326.23 9.97 326.25 9.03L326.25 9.03Q326.27 7.34 326.85 5.48L326.85 5.48Q327.35 3.85 328.04 3.01L328.04 3.01Q328.12 3.25 328.17 3.62L328.17 3.62Q328.23 4.21 328.15 5.20L328.15 5.20ZM329.08 1.96Q328.88 1.79 328.14 2.05L328.14 2.05Q327.64 2.24 327.66 2.39L327.66 2.39Q327.41 2.48 327.23 2.63L327.23 2.63Q326.25 3.40 325.58 5.22L325.58 5.22Q325.04 6.70 324.84 8.50L324.84 8.50Q324.76 9.28 324.79 9.92L324.79 9.92Q324.83 10.77 325.19 11.13L325.19 11.13Q325.38 11.31 325.81 11.33L325.81 11.33Q326.35 11.36 327.17 11.02L327.17 11.02Q327.86 10.74 328.38 9.94L328.38 9.94Q328.85 9.21 329.16 7.85L329.16 7.85Q329.38 6.94 329.50 5.84L329.50 5.84Q329.66 4.44 329.66 3.78L329.66 3.78Q329.65 2.45 329.08 1.96L329.08 1.96ZM340.40 5.31Q340.25 6.24 339.36 7.18L339.36 7.18Q339.17 7.38 338.93 7.58L338.93 7.58Q338.86 7.63 338.80 7.68L338.80 7.68Q338.58 7.59 338.33 7.58L338.33 7.58Q338.89 4.74 339.04 2.66L339.04 2.66Q339.30 2.80 339.54 2.99L339.54 2.99Q340.05 3.39 340.29 4.03L340.29 4.03Q340.51 4.65 340.40 5.31L340.40 5.31ZM337.43 2.40Q337.43 2.40 337.44 2.39L337.44 2.39Q337.44 2.40 337.43 2.40L337.43 2.40ZM342.36 11.42Q341.63 10.88 340.10 8.99L340.10 8.99Q339.43 8.17 339.32 8.05L339.32 8.05Q339.77 7.84 340.20 7.50L340.20 7.50Q341.41 6.56 341.76 5.41L341.76 5.41Q342.01 4.60 341.80 3.84L341.80 3.84Q341.59 3.07 340.97 2.53L340.97 2.53Q339.73 1.46 337.65 1.88L337.65 1.88Q337.52 1.91 337.33 1.96L337.33 1.96Q336.59 2.14 336.65 2.37L336.65 2.37Q336.71 2.58 337.42 2.40L337.42 2.40Q337.49 2.39 337.54 2.38L337.54 2.38Q337.58 2.37 337.61 2.37L337.61 2.37Q337.50 5.11 336.26 10.79L336.26 10.79Q336.21 11.04 336.84 10.92L336.84 10.92Q337.15 10.87 337.40 10.75L337.40 10.75Q337.68 10.62 337.70 10.53L337.70 10.53Q338.00 9.17 338.09 8.72L338.09 8.72Q338.10 8.72 338.10 8.72L338.10 8.72Q338.11 8.72 338.11 8.72L338.11 8.72Q338.21 8.85 338.90 9.70L338.90 9.70Q340.22 11.34 340.98 11.92L340.98 11.92Q341.21 12.09 341.93 11.83L341.93 11.83Q342.11 11.76 342.25 11.67L342.25 11.67Q342.50 11.52 342.36 11.42L342.36 11.42ZM355.84 2.21Q355.80 2.05 355.25 2.15L355.25 2.15Q354.55 2.28 354.39 2.54L354.39 2.54Q353.51 4.03 352.58 6.51L352.58 6.51L352.58 6.41Q352.58 5.55 352.41 2.12L352.41 2.12Q352.41 2.03 352.17 2.02L352.17 2.02Q352.03 1.92 351.61 2.00L351.61 2.00Q350.90 2.13 350.76 2.39L350.76 2.39Q348.63 6.30 348.02 11.14L348.02 11.14Q348.00 11.27 348.39 11.23L348.39 11.23Q348.63 11.21 348.81 11.16L348.81 11.16Q349.45 10.99 349.48 10.75L349.48 10.75Q349.88 7.51 351.05 4.58L351.05 4.58Q351.11 5.81 351.11 6.71L351.11 6.71Q351.12 8.26 351.04 8.86L351.04 8.86Q350.85 10.15 350.85 10.99L350.85 10.99Q350.85 11.20 351.53 11.03L351.53 11.03Q352.21 10.86 352.30 10.66L352.30 10.66Q352.78 9.61 353.49 7.67L353.49 7.67Q354.28 5.54 354.65 4.66L354.65 4.66Q354.69 5.91 354.45 7.85L354.45 7.85Q354.12 10.57 354.08 11.04L354.08 11.04Q354.07 11.12 354.29 11.12L354.29 11.12Q354.51 11.13 354.79 11.08L354.79 11.08Q355.52 10.94 355.54 10.65L355.54 10.65Q355.60 9.88 355.78 8.54L355.78 8.54Q355.97 7.03 356.03 6.43L356.03 6.43Q356.27 3.95 355.84 2.21L355.84 2.21ZM364.59 2.53Q364.35 3.62 363.73 6.79L363.73 6.79Q363.49 8.03 363.30 8.93L363.30 8.93Q362.91 10.78 362.91 10.91L362.91 10.91Q362.91 10.99 363.13 11.00L363.13 11.00Q363.35 11.01 363.63 10.96L363.63 10.96Q364.36 10.81 364.37 10.52L364.37 10.52Q364.38 10.23 364.53 9.62L364.53 9.62Q364.61 9.32 364.77 8.57L364.77 8.57Q364.94 7.77 365.20 6.44L365.20 6.44Q365.79 3.36 366.04 2.27L366.04 2.27Q366.09 2.02 365.45 2.13L365.45 2.13Q365.15 2.19 364.90 2.31L364.90 2.31Q364.62 2.44 364.59 2.53L364.59 2.53ZM378.65 0.74Q378.34 0.79 378.09 0.91L378.09 0.91Q377.82 1.04 377.79 1.13L377.79 1.13Q376.91 3.96 376.28 7.39L376.28 7.39Q376.20 6.88 376.09 6.21L376.09 6.21Q375.79 4.44 375.74 4.05L375.74 4.05Q375.59 2.77 375.40 2.37L375.40 2.37Q375.40 2.37 375.39 2.35L375.39 2.35L375.40 2.34Q375.40 2.34 375.40 2.33L375.40 2.33Q375.44 2.08 374.81 2.20L374.81 2.20Q374.51 2.26 374.25 2.37L374.25 2.37Q373.97 2.51 373.95 2.60L373.95 2.60Q373.77 3.71 373.13 6.73L373.13 6.73Q372.58 9.34 372.37 10.89L372.37 10.89Q372.36 11.01 372.74 10.98L372.74 10.98Q373.00 10.96 373.17 10.91L373.17 10.91Q373.81 10.74 373.84 10.50L373.84 10.50Q374.04 8.97 374.59 6.38L374.59 6.38Q374.62 6.54 374.62 6.61L374.62 6.61Q374.84 7.90 375.02 8.95L375.02 8.95Q375.28 10.45 375.50 11.09L375.50 11.09Q375.56 11.24 375.90 11.21L375.90 11.21Q376.22 11.18 376.55 11.05L376.55 11.05Q377.14 10.89 377.17 10.65L377.17 10.65Q377.95 5.00 379.23 0.87L379.23 0.87Q379.31 0.62 378.65 0.74L378.65 0.74ZM388.29 7.83L388.29 7.83Q388.31 7.83 388.34 7.81L388.34 7.81Q388.31 7.83 388.29 7.83L388.29 7.83ZM389.85 1.67Q389.48 0.90 388.12 1.50L388.12 1.50Q387.56 1.75 386.99 2.55L386.99 2.55Q386.52 3.20 386.10 4.06L386.10 4.06Q385.18 5.91 384.90 8.21L384.90 8.21Q384.78 9.15 384.77 9.80L384.77 9.80Q384.75 10.74 385.18 11.05L385.18 11.05Q385.64 11.39 386.77 11.00L386.77 11.00Q387.42 10.77 388.01 10.19L388.01 10.19Q388.53 9.71 388.84 8.87L388.84 8.87Q388.99 8.48 389.05 8.11L389.05 8.11Q389.10 7.72 389.00 7.57L389.00 7.57Q388.82 7.29 388.15 7.43L388.15 7.43Q387.43 7.58 386.81 8.07L386.81 8.07Q386.63 8.21 386.84 8.27L386.84 8.27Q386.99 8.31 387.15 8.30L387.15 8.30Q387.39 8.28 387.61 8.21L387.61 8.21Q387.63 8.48 387.43 9.04L387.43 9.04Q387.24 9.59 386.98 9.99L386.98 9.99Q386.93 10.06 386.91 10.08L386.91 10.08Q386.80 10.21 386.70 10.31L386.70 10.31Q386.61 10.40 386.48 10.51L386.48 10.51Q386.44 10.45 386.38 10.36L386.38 10.36Q386.26 10.13 386.23 9.65L386.23 9.65Q386.22 9.36 386.32 8.16L386.32 8.16Q386.51 5.98 387.46 3.95L387.46 3.95Q387.99 2.84 388.47 2.21L388.47 2.21Q388.58 2.51 388.60 2.81L388.60 2.81Q388.61 3.19 388.42 3.34L388.42 3.34Q388.25 3.47 388.45 3.53L388.45 3.53Q388.60 3.58 388.76 3.57L388.76 3.57Q389.36 3.51 389.74 3.22L389.74 3.22Q390.04 2.98 390.04 2.48L390.04 2.48Q390.04 2.06 389.85 1.67L389.85 1.67ZM409.60 9.37Q409.50 9.50 409.25 9.70L409.25 9.70Q409.21 9.73 409.10 9.80L409.10 9.80Q409.05 9.84 408.99 9.87L408.99 9.87Q408.88 9.94 408.89 9.93L408.89 9.93Q408.80 9.97 408.69 10.03L408.69 10.03Q408.67 10.04 408.60 10.06L408.60 10.06Q408.60 10.07 408.50 10.11L408.50 10.11Q408.48 10.11 408.41 10.14L408.41 10.14Q408.33 10.16 408.32 10.17L408.32 10.17Q408.24 10.19 408.13 10.21L408.13 10.21Q408.11 10.23 407.96 10.25L407.96 10.25Q407.96 10.25 407.91 10.26L407.91 10.26Q407.93 10.26 407.79 10.27L407.79 10.27Q407.72 10.28 407.59 10.29L407.59 10.29Q407.62 10.29 407.44 10.29L407.44 10.29Q407.52 10.03 407.88 8.24L407.88 8.24Q408.20 8.20 408.47 8.05L408.47 8.05Q408.60 7.99 408.74 7.93L408.74 7.93Q408.75 7.92 408.75 7.92L408.75 7.92Q408.75 7.92 408.76 7.92L408.76 7.92Q408.84 7.88 408.97 7.84L408.97 7.84Q408.98 7.84 408.98 7.83L408.98 7.83L408.99 7.83Q409.01 7.83 409.07 7.81L409.07 7.81Q409.14 7.79 409.15 7.79L409.15 7.79Q409.19 7.79 409.23 7.78L409.23 7.78Q409.27 7.77 409.32 7.77L409.32 7.77Q409.32 7.77 409.32 7.77L409.32 7.77Q409.34 7.77 409.37 7.77L409.37 7.77Q409.40 7.77 409.42 7.77L409.42 7.77Q409.43 7.77 409.47 7.78L409.47 7.78Q409.60 7.81 409.71 7.88L409.71 7.88Q409.93 8.03 409.93 8.46L409.93 8.46Q409.93 8.93 409.60 9.37L409.60 9.37ZM409.22 6.15Q408.73 6.95 408.04 7.54L408.04 7.54Q408.18 6.95 408.45 6.02L408.45 6.02Q409.18 3.45 409.36 2.44L409.36 2.44Q409.88 2.95 409.94 3.83L409.94 3.83Q410.02 4.83 409.22 6.15L409.22 6.15ZM409.54 7.25Q410.15 6.67 410.61 5.95L410.61 5.95Q411.52 4.56 411.39 3.30L411.39 3.30Q411.28 2.15 410.27 1.62L410.27 1.62Q409.25 1.08 407.65 1.55L407.65 1.55Q406.92 1.76 406.97 1.96L406.97 1.96Q407.04 2.20 407.76 1.99L407.76 1.99Q407.94 1.93 407.89 1.95L407.89 1.95Q407.96 1.94 407.96 1.93L407.96 1.93Q407.98 1.93 407.99 1.93L407.99 1.93Q408.03 1.93 408.06 1.93L408.06 1.93Q408.04 1.97 408.03 2.02L408.03 2.02Q407.88 3.23 407.00 6.28L407.00 6.28Q406.66 7.50 406.46 8.38L406.46 8.38Q405.97 10.71 405.98 10.66L405.98 10.66Q405.92 10.84 406.28 10.83L406.28 10.83Q406.34 10.87 406.47 10.88L406.47 10.88Q408.01 10.93 409.64 10.16L409.64 10.16Q411.25 9.39 411.39 8.16L411.39 8.16Q411.52 6.88 409.54 7.25L409.54 7.25ZM423.01 2.21Q422.37 2.38 422.34 2.63L422.34 2.63Q422.28 3.01 422.13 4.51L422.13 4.51Q422.00 5.69 421.87 6.41L421.87 6.41Q421.46 8.57 420.36 9.83L420.36 9.83Q420.21 10.00 420.10 10.12L420.10 10.12Q419.84 9.61 419.80 8.40L419.80 8.40Q419.75 6.90 420.67 4.58L420.67 4.58Q421.35 2.88 421.52 2.40L421.52 2.40Q421.61 2.15 420.94 2.26L420.94 2.26Q420.16 2.41 420.08 2.66L420.08 2.66Q419.91 3.12 419.36 4.53L419.36 4.53Q418.89 5.71 418.68 6.43L418.68 6.43Q418.02 8.66 418.58 10.36L418.58 10.36Q418.69 10.68 418.89 10.83L418.89 10.83Q419.12 11.03 419.76 10.92L419.76 10.92Q420.77 10.73 421.68 9.71L421.68 9.71Q422.85 8.41 423.28 6.34L423.28 6.34Q423.44 5.55 423.58 4.29L423.58 4.29Q423.75 2.58 423.80 2.24L423.80 2.24Q423.81 2.11 423.43 2.14L423.43 2.14Q423.18 2.16 423.01 2.21L423.01 2.21ZM435.42 5.50Q435.87 4.74 436.08 3.53L436.08 3.53Q436.32 2.15 435.82 1.57L435.82 1.57Q435.53 1.22 434.78 1.27L434.78 1.27Q433.84 1.33 432.95 1.85L432.95 1.85Q431.70 2.59 431.09 4.34L431.09 4.34Q430.47 6.10 431.09 7.18L431.09 7.18Q431.38 7.68 432.76 8.17L432.76 8.17Q433.32 8.37 433.53 8.48L433.53 8.48Q433.97 8.74 434.05 9.11L434.05 9.11Q434.15 9.50 433.81 10.17L433.81 10.17Q433.63 10.51 433.35 10.76L433.35 10.76Q433.23 10.87 433.08 10.97L433.08 10.97Q433.00 11.02 432.98 11.03L432.98 11.03Q432.92 11.07 432.86 11.09L432.86 11.09Q432.95 11.05 432.83 11.10L432.83 11.10Q432.84 11.10 432.90 11.09L432.90 11.09Q432.86 11.09 432.81 11.09L432.81 11.09Q432.80 11.10 432.71 11.09L432.71 11.09Q432.66 11.09 432.51 11.05L432.51 11.05Q432.15 10.97 431.85 10.64L431.85 10.64Q431.63 10.39 431.55 9.93L431.55 9.93Q431.44 9.44 431.67 9.28L431.67 9.28Q431.87 9.13 431.85 9.06L431.85 9.06Q431.82 8.97 431.59 8.96L431.59 8.96Q430.96 8.95 430.55 9.24L430.55 9.24Q430.17 9.53 430.09 9.86L430.09 9.86Q430.01 10.20 430.17 10.62L430.17 10.62Q430.44 11.36 431.31 11.61L431.31 11.61Q432.20 11.87 433.47 11.37L433.47 11.37Q434.48 10.96 435.05 10.24L435.05 10.24Q435.42 9.76 435.51 9.24L435.51 9.24Q435.61 8.62 435.23 8.23L435.23 8.23Q434.96 7.96 434.40 7.75L434.40 7.75Q434.25 7.70 433.94 7.59L433.94 7.59Q433.64 7.50 433.51 7.44L433.51 7.44Q432.98 7.23 432.70 6.97L432.70 6.97Q432.40 6.69 432.30 5.96L432.30 5.96Q432.10 4.53 433.05 2.97L433.05 2.97Q433.47 2.29 433.97 1.95L433.97 1.95Q434.02 1.91 434.12 1.86L434.12 1.86Q434.11 1.86 434.16 1.84L434.16 1.84Q434.15 1.84 434.19 1.83L434.19 1.83Q434.16 1.84 434.21 1.83L434.21 1.83Q434.13 1.85 434.05 1.85L434.05 1.85Q434.08 1.85 434.06 1.85L434.06 1.85L434.08 1.85Q434.14 1.86 434.22 1.89L434.22 1.89Q434.23 1.89 434.33 1.96L434.33 1.96Q434.40 2.01 434.44 2.06L434.44 2.06Q434.55 2.20 434.62 2.45L434.62 2.45Q434.74 2.84 434.68 3.49L434.68 3.49Q434.55 4.81 433.98 5.76L433.98 5.76Q433.89 5.90 434.20 5.91L434.20 5.91Q434.40 5.92 434.56 5.89L434.56 5.89Q435.26 5.76 435.42 5.50L435.42 5.50ZM444.06 2.53Q443.82 3.62 443.20 6.79L443.20 6.79Q442.96 8.03 442.77 8.93L442.77 8.93Q442.38 10.78 442.37 10.91L442.37 10.91Q442.37 10.99 442.60 11.00L442.60 11.00Q442.82 11.01 443.10 10.96L443.10 10.96Q443.83 10.81 443.84 10.52L443.84 10.52Q443.84 10.23 444.00 9.62L444.00 9.62Q444.08 9.32 444.23 8.57L444.23 8.57Q444.40 7.77 444.66 6.44L444.66 6.44Q445.26 3.36 445.50 2.27L445.50 2.27Q445.56 2.02 444.92 2.13L444.92 2.13Q444.62 2.19 444.36 2.31L444.36 2.31Q444.08 2.44 444.06 2.53L444.06 2.53ZM458.12 0.74Q457.81 0.79 457.56 0.91L457.56 0.91Q457.28 1.04 457.26 1.13L457.26 1.13Q456.37 3.96 455.75 7.39L455.75 7.39Q455.67 6.88 455.55 6.21L455.55 6.21Q455.26 4.44 455.21 4.05L455.21 4.05Q455.06 2.77 454.87 2.37L454.87 2.37Q454.87 2.37 454.86 2.35L454.86 2.35L454.86 2.34Q454.86 2.34 454.86 2.33L454.86 2.33Q454.90 2.08 454.28 2.20L454.28 2.20Q453.97 2.26 453.72 2.37L453.72 2.37Q453.43 2.51 453.42 2.60L453.42 2.60Q453.24 3.71 452.59 6.73L452.59 6.73Q452.05 9.34 451.84 10.89L451.84 10.89Q451.83 11.01 452.21 10.98L452.21 10.98Q452.46 10.96 452.63 10.91L452.63 10.91Q453.28 10.74 453.30 10.50L453.30 10.50Q453.50 8.97 454.06 6.38L454.06 6.38Q454.08 6.54 454.09 6.61L454.09 6.61Q454.31 7.90 454.49 8.95L454.49 8.95Q454.75 10.45 454.97 11.09L454.97 11.09Q455.03 11.24 455.37 11.21L455.37 11.21Q455.68 11.18 456.02 11.05L456.02 11.05Q456.61 10.89 456.64 10.65L456.64 10.65Q457.41 5.00 458.70 0.87L458.70 0.87Q458.78 0.62 458.12 0.74L458.12 0.74ZM469.33 1.42Q468.62 1.19 467.44 1.57L467.44 1.57Q465.93 2.06 465.37 3.77L465.37 3.77Q465.02 4.83 465.20 6.11L465.20 6.11Q465.29 6.76 465.55 7.16L465.55 7.16Q465.14 7.38 464.84 7.70L464.84 7.70Q463.85 8.80 463.96 10.01L463.96 10.01Q464.02 10.70 464.50 11.11L464.50 11.11Q464.90 11.44 465.73 11.42L465.73 11.42Q466.56 11.39 467.26 10.95L467.26 10.95Q468.02 10.49 468.32 9.76L468.32 9.76Q468.38 9.61 468.10 9.60L468.10 9.60Q467.93 9.59 467.74 9.63L467.74 9.63Q466.98 9.76 466.88 10.02L466.88 10.02Q466.68 10.51 466.33 10.80L466.33 10.80Q466.32 10.81 466.31 10.82L466.31 10.82Q466.26 10.81 466.25 10.81L466.25 10.81Q466.18 10.79 466.10 10.75L466.10 10.75Q465.94 10.68 465.78 10.52L465.78 10.52Q465.49 10.23 465.42 9.63L465.42 9.63Q465.32 8.83 465.95 7.86L465.95 7.86Q466.03 7.74 466.14 7.62L466.14 7.62Q466.35 7.70 466.62 7.72L466.62 7.72Q467.02 7.74 467.52 7.51L467.52 7.51Q467.93 7.32 467.78 7.18L467.78 7.18Q467.50 6.90 467.07 6.84L467.07 6.84Q467.03 6.79 467.00 6.75L467.00 6.75Q466.79 6.45 466.68 5.89L466.68 5.89Q466.49 4.89 466.68 4.00L466.68 4.00Q466.94 2.70 467.71 2.04L467.71 2.04Q467.76 2.00 467.86 1.93L467.86 1.93Q467.87 1.93 467.87 1.93L467.87 1.93Q468.00 1.94 467.97 1.93L467.97 1.93Q468.56 2.02 468.44 2.62L468.44 2.62Q468.39 2.86 469.02 2.75L469.02 2.75Q469.33 2.69 469.58 2.58L469.58 2.58Q469.86 2.45 469.88 2.36L469.88 2.36Q470.02 1.63 469.33 1.42L469.33 1.42ZM480.77 5.50Q481.22 4.74 481.43 3.53L481.43 3.53Q481.67 2.15 481.17 1.57L481.17 1.57Q480.88 1.22 480.13 1.27L480.13 1.27Q479.19 1.33 478.30 1.85L478.30 1.85Q477.05 2.59 476.44 4.34L476.44 4.34Q475.82 6.10 476.44 7.18L476.44 7.18Q476.73 7.68 478.11 8.17L478.11 8.17Q478.67 8.37 478.88 8.48L478.88 8.48Q479.32 8.74 479.40 9.11L479.40 9.11Q479.50 9.50 479.16 10.17L479.16 10.17Q478.98 10.51 478.70 10.76L478.70 10.76Q478.58 10.87 478.43 10.97L478.43 10.97Q478.35 11.02 478.33 11.03L478.33 11.03Q478.27 11.07 478.21 11.09L478.21 11.09Q478.30 11.05 478.18 11.10L478.18 11.10Q478.19 11.10 478.25 11.09L478.25 11.09Q478.21 11.09 478.16 11.09L478.16 11.09Q478.15 11.10 478.06 11.09L478.06 11.09Q478.01 11.09 477.86 11.05L477.86 11.05Q477.50 10.97 477.20 10.64L477.20 10.64Q476.98 10.39 476.90 9.93L476.90 9.93Q476.79 9.44 477.02 9.28L477.02 9.28Q477.22 9.13 477.20 9.06L477.20 9.06Q477.17 8.97 476.94 8.96L476.94 8.96Q476.31 8.95 475.90 9.24L475.90 9.24Q475.51 9.53 475.44 9.86L475.44 9.86Q475.36 10.20 475.51 10.62L475.51 10.62Q475.79 11.36 476.66 11.61L476.66 11.61Q477.54 11.87 478.82 11.37L478.82 11.37Q479.83 10.96 480.40 10.24L480.40 10.24Q480.77 9.76 480.86 9.24L480.86 9.24Q480.96 8.62 480.58 8.23L480.58 8.23Q480.31 7.96 479.75 7.75L479.75 7.75Q479.60 7.70 479.29 7.59L479.29 7.59Q478.99 7.50 478.86 7.44L478.86 7.44Q478.33 7.23 478.05 6.97L478.05 6.97Q477.75 6.69 477.65 5.96L477.65 5.96Q477.45 4.53 478.40 2.97L478.40 2.97Q478.82 2.29 479.32 1.95L479.32 1.95Q479.37 1.91 479.47 1.86L479.47 1.86Q479.46 1.86 479.51 1.84L479.51 1.84Q479.50 1.84 479.54 1.83L479.54 1.83Q479.51 1.84 479.55 1.83L479.55 1.83Q479.48 1.85 479.40 1.85L479.40 1.85Q479.42 1.85 479.41 1.85L479.41 1.85L479.43 1.85Q479.49 1.86 479.57 1.89L479.57 1.89Q479.58 1.89 479.68 1.96L479.68 1.96Q479.75 2.01 479.79 2.06L479.79 2.06Q479.90 2.20 479.97 2.45L479.97 2.45Q480.09 2.84 480.03 3.49L480.03 3.49Q479.90 4.81 479.33 5.76L479.33 5.76Q479.24 5.90 479.55 5.91L479.55 5.91Q479.75 5.92 479.91 5.89L479.91 5.89Q480.61 5.76 480.77 5.50L480.77 5.50ZM493.13 5.50Q493.58 4.74 493.79 3.53L493.79 3.53Q494.03 2.15 493.53 1.57L493.53 1.57Q493.24 1.22 492.49 1.27L492.49 1.27Q491.55 1.33 490.66 1.85L490.66 1.85Q489.41 2.59 488.80 4.34L488.80 4.34Q488.18 6.10 488.80 7.18L488.80 7.18Q489.09 7.68 490.46 8.17L490.46 8.17Q491.03 8.37 491.24 8.48L491.24 8.48Q491.67 8.74 491.76 9.11L491.76 9.11Q491.86 9.50 491.52 10.17L491.52 10.17Q491.34 10.51 491.06 10.76L491.06 10.76Q490.94 10.87 490.79 10.97L490.79 10.97Q490.71 11.02 490.69 11.03L490.69 11.03Q490.63 11.07 490.57 11.09L490.57 11.09Q490.66 11.05 490.54 11.10L490.54 11.10Q490.55 11.10 490.61 11.09L490.61 11.09Q490.57 11.09 490.52 11.09L490.52 11.09Q490.51 11.10 490.42 11.09L490.42 11.09Q490.37 11.09 490.22 11.05L490.22 11.05Q489.86 10.97 489.56 10.64L489.56 10.64Q489.34 10.39 489.25 9.93L489.25 9.93Q489.15 9.44 489.38 9.28L489.38 9.28Q489.58 9.13 489.56 9.06L489.56 9.06Q489.53 8.97 489.30 8.96L489.30 8.96Q488.67 8.95 488.26 9.24L488.26 9.24Q487.87 9.53 487.80 9.86L487.80 9.86Q487.72 10.20 487.87 10.62L487.87 10.62Q488.15 11.36 489.02 11.61L489.02 11.61Q489.90 11.87 491.18 11.37L491.18 11.37Q492.19 10.96 492.75 10.24L492.75 10.24Q493.13 9.76 493.22 9.24L493.22 9.24Q493.32 8.62 492.94 8.23L492.94 8.23Q492.67 7.96 492.11 7.75L492.11 7.75Q491.96 7.70 491.65 7.59L491.65 7.59Q491.35 7.50 491.22 7.44L491.22 7.44Q490.69 7.23 490.41 6.97L490.41 6.97Q490.11 6.69 490.01 5.96L490.01 5.96Q489.81 4.53 490.76 2.97L490.76 2.97Q491.18 2.29 491.68 1.95L491.68 1.95Q491.73 1.91 491.83 1.86L491.83 1.86Q491.82 1.86 491.87 1.84L491.87 1.84Q491.86 1.84 491.90 1.83L491.90 1.83Q491.87 1.84 491.91 1.83L491.91 1.83Q491.84 1.85 491.76 1.85L491.76 1.85Q491.78 1.85 491.77 1.85L491.77 1.85L491.79 1.85Q491.85 1.86 491.93 1.89L491.93 1.89Q491.94 1.89 492.04 1.96L492.04 1.96Q492.11 2.01 492.15 2.06L492.15 2.06Q492.26 2.20 492.33 2.45L492.33 2.45Q492.45 2.84 492.39 3.49L492.39 3.49Q492.26 4.81 491.69 5.76L491.69 5.76Q491.60 5.90 491.91 5.91L491.91 5.91Q492.11 5.92 492.27 5.89L492.27 5.89Q492.97 5.76 493.13 5.50L493.13 5.50ZM505.07 1.42Q504.36 1.19 503.18 1.57L503.18 1.57Q501.67 2.06 501.11 3.77L501.11 3.77Q500.76 4.83 500.94 6.11L500.94 6.11Q501.03 6.76 501.29 7.16L501.29 7.16Q500.88 7.38 500.58 7.70L500.58 7.70Q499.58 8.80 499.69 10.01L499.69 10.01Q499.76 10.70 500.24 11.11L500.24 11.11Q500.64 11.44 501.46 11.42L501.46 11.42Q502.30 11.39 503.00 10.95L503.00 10.95Q503.75 10.49 504.05 9.76L504.05 9.76Q504.12 9.61 503.84 9.60L503.84 9.60Q503.67 9.59 503.47 9.63L503.47 9.63Q502.72 9.76 502.62 10.02L502.62 10.02Q502.42 10.51 502.07 10.80L502.07 10.80Q502.06 10.81 502.04 10.82L502.04 10.82Q502.00 10.81 501.99 10.81L501.99 10.81Q501.92 10.79 501.84 10.75L501.84 10.75Q501.68 10.68 501.52 10.52L501.52 10.52Q501.23 10.23 501.16 9.63L501.16 9.63Q501.06 8.83 501.69 7.86L501.69 7.86Q501.77 7.74 501.87 7.62L501.87 7.62Q502.09 7.70 502.36 7.72L502.36 7.72Q502.76 7.74 503.25 7.51L503.25 7.51Q503.67 7.32 503.52 7.18L503.52 7.18Q503.23 6.90 502.81 6.84L502.81 6.84Q502.77 6.79 502.74 6.75L502.74 6.75Q502.53 6.45 502.42 5.89L502.42 5.89Q502.23 4.89 502.41 4.00L502.41 4.00Q502.68 2.70 503.45 2.04L503.45 2.04Q503.50 2.00 503.60 1.93L503.60 1.93Q503.60 1.93 503.60 1.93L503.60 1.93Q503.73 1.94 503.71 1.93L503.71 1.93Q504.29 2.02 504.18 2.62L504.18 2.62Q504.13 2.86 504.76 2.75L504.76 2.75Q505.07 2.69 505.32 2.58L505.32 2.58Q505.60 2.45 505.62 2.36L505.62 2.36Q505.76 1.63 505.07 1.42L505.07 1.42ZM516.51 5.50Q516.96 4.74 517.17 3.53L517.17 3.53Q517.41 2.15 516.91 1.57L516.91 1.57Q516.62 1.22 515.87 1.27L515.87 1.27Q514.93 1.33 514.04 1.85L514.04 1.85Q512.78 2.59 512.18 4.34L512.18 4.34Q511.56 6.10 512.18 7.18L512.18 7.18Q512.47 7.68 513.84 8.17L513.84 8.17Q514.41 8.37 514.62 8.48L514.62 8.48Q515.05 8.74 515.14 9.11L515.14 9.11Q515.24 9.50 514.90 10.17L514.90 10.17Q514.72 10.51 514.44 10.76L514.44 10.76Q514.32 10.87 514.17 10.97L514.17 10.97Q514.09 11.02 514.07 11.03L514.07 11.03Q514.01 11.07 513.95 11.09L513.95 11.09Q514.04 11.05 513.92 11.10L513.92 11.10Q513.93 11.10 513.99 11.09L513.99 11.09Q513.95 11.09 513.90 11.09L513.90 11.09Q513.89 11.10 513.80 11.09L513.80 11.09Q513.75 11.09 513.60 11.05L513.60 11.05Q513.24 10.97 512.94 10.64L512.94 10.64Q512.72 10.39 512.63 9.93L512.63 9.93Q512.53 9.44 512.76 9.28L512.76 9.28Q512.96 9.13 512.93 9.06L512.93 9.06Q512.91 8.97 512.67 8.96L512.67 8.96Q512.05 8.95 511.64 9.24L511.64 9.24Q511.25 9.53 511.18 9.86L511.18 9.86Q511.10 10.20 511.25 10.62L511.25 10.62Q511.53 11.36 512.39 11.61L512.39 11.61Q513.28 11.87 514.55 11.37L514.55 11.37Q515.57 10.96 516.13 10.24L516.13 10.24Q516.51 9.76 516.60 9.24L516.60 9.24Q516.70 8.62 516.32 8.23L516.32 8.23Q516.05 7.96 515.49 7.75L515.49 7.75Q515.34 7.70 515.03 7.59L515.03 7.59Q514.73 7.50 514.60 7.44L514.60 7.44Q514.07 7.23 513.79 6.97L513.79 6.97Q513.49 6.69 513.39 5.96L513.39 5.96Q513.19 4.53 514.14 2.97L514.14 2.97Q514.55 2.29 515.06 1.95L515.06 1.95Q515.11 1.91 515.20 1.86L515.20 1.86Q515.20 1.86 515.25 1.84L515.25 1.84Q515.24 1.84 515.28 1.83L515.28 1.83Q515.25 1.84 515.29 1.83L515.29 1.83Q515.22 1.85 515.14 1.85L515.14 1.85Q515.16 1.85 515.15 1.85L515.15 1.85L515.17 1.85Q515.22 1.86 515.31 1.89L515.31 1.89Q515.32 1.89 515.42 1.96L515.42 1.96Q515.48 2.01 515.53 2.06L515.53 2.06Q515.64 2.20 515.71 2.45L515.71 2.45Q515.83 2.84 515.76 3.49L515.76 3.49Q515.64 4.81 515.07 5.76L515.07 5.76Q514.98 5.90 515.29 5.91L515.29 5.91Q515.48 5.92 515.65 5.89L515.65 5.89Q516.35 5.76 516.51 5.50L516.51 5.50ZM538.62 2.35Q537.67 2.17 536.66 2.15L536.66 2.15Q536.57 2.03 536.09 2.11L536.09 2.11Q535.99 2.13 535.88 2.16L535.88 2.16Q534.81 2.22 533.77 2.46L533.77 2.46Q533.03 2.63 533.10 2.88L533.10 2.88Q533.15 3.08 533.87 2.91L533.87 2.91Q533.88 2.91 533.89 2.90L533.89 2.90Q533.91 2.90 533.92 2.89L533.92 2.89Q534.00 2.88 534.15 2.85L534.15 2.85Q534.32 2.82 534.54 2.80L534.54 2.80Q534.83 2.76 535.16 2.75L535.16 2.75Q533.74 7.40 533.35 10.96L533.35 10.96Q533.34 11.02 533.57 11.03L533.57 11.03Q533.78 11.04 534.06 10.99L534.06 10.99Q534.78 10.86 534.81 10.56L534.81 10.56Q535.19 7.19 536.50 2.78L536.50 2.78Q536.98 2.82 537.41 2.91L537.41 2.91Q537.85 2.99 538.44 2.72L538.44 2.72Q538.60 2.65 538.69 2.54L538.69 2.54Q538.84 2.39 538.62 2.35L538.62 2.35ZM549.57 1.31Q549.26 1.36 549.01 1.48L549.01 1.48Q548.73 1.61 548.71 1.70L548.71 1.70Q548.51 2.55 548.06 4.25L548.06 4.25Q547.61 5.94 547.41 6.80L547.41 6.80Q546.76 6.88 546.08 7.03L546.08 7.03Q546.29 6.04 546.70 4.31L546.70 4.31Q547.16 2.37 547.33 1.59L547.33 1.59Q547.38 1.34 546.75 1.46L546.75 1.46Q546.44 1.51 546.19 1.63L546.19 1.63Q545.91 1.76 545.89 1.85L545.89 1.85Q545.72 2.61 545.24 4.64L545.24 4.64Q544.82 6.41 544.61 7.44L544.61 7.44Q544.48 7.49 544.44 7.50L544.44 7.50Q544.28 7.55 544.12 7.66L544.12 7.66Q543.87 7.82 544.00 7.91L544.00 7.91Q544.17 8.01 544.51 7.94L544.51 7.94Q544.19 9.65 544.07 11.08L544.07 11.08Q544.06 11.15 544.28 11.16L544.28 11.16Q544.50 11.17 544.78 11.12L544.78 11.12Q545.50 10.98 545.52 10.69L545.52 10.69Q545.64 9.26 545.98 7.53L545.98 7.53Q546.18 7.49 546.53 7.42L546.53 7.42Q546.91 7.36 547.29 7.33L547.29 7.33Q546.82 9.44 546.73 11.13L546.73 11.13Q546.73 11.20 546.96 11.21L546.96 11.21Q547.17 11.22 547.45 11.17L547.45 11.17Q548.18 11.03 548.19 10.74L548.19 10.74Q548.28 9.17 548.69 7.25L548.69 7.25Q549.02 7.18 549.28 7.02L549.28 7.02Q549.46 6.91 549.43 6.82L549.43 6.82Q549.40 6.72 549.20 6.71L549.20 6.71Q549.03 6.71 548.80 6.71L548.80 6.71Q549.01 5.79 549.47 4.07L549.47 4.07Q549.95 2.28 550.15 1.44L550.15 1.44Q550.20 1.19 549.57 1.31L549.57 1.31ZM560.61 5.31Q560.46 6.24 559.56 7.18L559.56 7.18Q559.37 7.38 559.13 7.58L559.13 7.58Q559.07 7.63 559.01 7.68L559.01 7.68Q558.79 7.59 558.54 7.58L558.54 7.58Q559.10 4.74 559.24 2.66L559.24 2.66Q559.51 2.80 559.75 2.99L559.75 2.99Q560.26 3.39 560.49 4.03L560.49 4.03Q560.72 4.65 560.61 5.31L560.61 5.31ZM557.63 2.40Q557.63 2.40 557.65 2.39L557.65 2.39Q557.64 2.40 557.63 2.40L557.63 2.40ZM562.57 11.42Q561.84 10.88 560.31 8.99L560.31 8.99Q559.64 8.17 559.52 8.05L559.52 8.05Q559.98 7.84 560.41 7.50L560.41 7.50Q561.61 6.56 561.97 5.41L561.97 5.41Q562.21 4.60 562.01 3.84L562.01 3.84Q561.80 3.07 561.18 2.53L561.18 2.53Q559.93 1.46 557.86 1.88L557.86 1.88Q557.73 1.91 557.53 1.96L557.53 1.96Q556.79 2.14 556.86 2.37L556.86 2.37Q556.92 2.58 557.63 2.40L557.63 2.40Q557.70 2.39 557.74 2.38L557.74 2.38Q557.79 2.37 557.82 2.37L557.82 2.37Q557.70 5.11 556.47 10.79L556.47 10.79Q556.41 11.04 557.05 10.92L557.05 10.92Q557.35 10.87 557.61 10.75L557.61 10.75Q557.89 10.62 557.91 10.53L557.91 10.53Q558.20 9.17 558.30 8.72L558.30 8.72Q558.30 8.72 558.30 8.72L558.30 8.72Q558.31 8.72 558.31 8.72L558.31 8.72Q558.42 8.85 559.10 9.70L559.10 9.70Q560.42 11.34 561.19 11.92L561.19 11.92Q561.42 12.09 562.13 11.83L562.13 11.83Q562.32 11.76 562.46 11.67L562.46 11.67Q562.71 11.52 562.57 11.42L562.57 11.42ZM572.20 5.20Q572.07 6.64 571.81 7.92L571.81 7.92Q571.40 9.88 570.62 10.64L570.62 10.64Q570.53 10.55 570.46 10.38L570.46 10.38Q570.27 9.97 570.29 9.03L570.29 9.03Q570.32 7.34 570.89 5.48L570.89 5.48Q571.39 3.85 572.09 3.01L572.09 3.01Q572.16 3.25 572.21 3.62L572.21 3.62Q572.28 4.21 572.20 5.20L572.20 5.20ZM573.13 1.96Q572.92 1.79 572.18 2.05L572.18 2.05Q571.68 2.24 571.70 2.39L571.70 2.39Q571.45 2.48 571.27 2.63L571.27 2.63Q570.29 3.40 569.63 5.22L569.63 5.22Q569.08 6.70 568.89 8.50L568.89 8.50Q568.80 9.28 568.83 9.92L568.83 9.92Q568.87 10.77 569.24 11.13L569.24 11.13Q569.42 11.31 569.85 11.33L569.85 11.33Q570.39 11.36 571.22 11.02L571.22 11.02Q571.90 10.74 572.42 9.94L572.42 9.94Q572.89 9.21 573.21 7.85L573.21 7.85Q573.42 6.94 573.54 5.84L573.54 5.84Q573.71 4.44 573.71 3.78L573.71 3.78Q573.69 2.45 573.13 1.96L573.13 1.96ZM585.02 2.21Q584.38 2.38 584.35 2.63L584.35 2.63Q584.29 3.01 584.14 4.51L584.14 4.51Q584.01 5.69 583.88 6.41L583.88 6.41Q583.47 8.57 582.37 9.83L582.37 9.83Q582.22 10.00 582.11 10.12L582.11 10.12Q581.85 9.61 581.81 8.40L581.81 8.40Q581.76 6.90 582.68 4.58L582.68 4.58Q583.37 2.88 583.53 2.40L583.53 2.40Q583.62 2.15 582.95 2.26L582.95 2.26Q582.18 2.41 582.09 2.66L582.09 2.66Q581.92 3.12 581.37 4.53L581.37 4.53Q580.90 5.71 580.69 6.43L580.69 6.43Q580.03 8.66 580.60 10.36L580.60 10.36Q580.70 10.68 580.90 10.83L580.90 10.83Q581.13 11.03 581.77 10.92L581.77 10.92Q582.78 10.73 583.69 9.71L583.69 9.71Q584.86 8.41 585.29 6.34L585.29 6.34Q585.45 5.55 585.59 4.29L585.59 4.29Q585.76 2.58 585.81 2.24L585.81 2.24Q585.83 2.11 585.44 2.14L585.44 2.14Q585.19 2.16 585.02 2.21L585.02 2.21ZM595.44 7.83L595.44 7.83Q595.46 7.83 595.49 7.81L595.49 7.81Q595.46 7.83 595.44 7.83L595.44 7.83ZM597.00 1.67Q596.63 0.90 595.27 1.50L595.27 1.50Q594.71 1.75 594.14 2.55L594.14 2.55Q593.67 3.20 593.25 4.06L593.25 4.06Q592.33 5.91 592.05 8.21L592.05 8.21Q591.93 9.15 591.92 9.80L591.92 9.80Q591.90 10.74 592.33 11.05L592.33 11.05Q592.79 11.39 593.92 11.00L593.92 11.00Q594.57 10.77 595.16 10.19L595.16 10.19Q595.68 9.71 595.99 8.87L595.99 8.87Q596.13 8.48 596.20 8.11L596.20 8.11Q596.25 7.72 596.15 7.57L596.15 7.57Q595.97 7.29 595.30 7.43L595.30 7.43Q594.58 7.58 593.96 8.07L593.96 8.07Q593.78 8.21 593.99 8.27L593.99 8.27Q594.14 8.31 594.30 8.30L594.30 8.30Q594.54 8.28 594.76 8.21L594.76 8.21Q594.77 8.48 594.58 9.04L594.58 9.04Q594.39 9.59 594.13 9.99L594.13 9.99Q594.08 10.06 594.06 10.08L594.06 10.08Q593.95 10.21 593.85 10.31L593.85 10.31Q593.76 10.40 593.63 10.51L593.63 10.51Q593.58 10.45 593.53 10.36L593.53 10.36Q593.41 10.13 593.38 9.65L593.38 9.65Q593.37 9.36 593.47 8.16L593.47 8.16Q593.66 5.98 594.61 3.95L594.61 3.95Q595.14 2.84 595.62 2.21L595.62 2.21Q595.73 2.51 595.75 2.81L595.75 2.81Q595.76 3.19 595.57 3.34L595.57 3.34Q595.40 3.47 595.60 3.53L595.60 3.53Q595.75 3.58 595.91 3.57L595.91 3.57Q596.51 3.51 596.89 3.22L596.89 3.22Q597.19 2.98 597.19 2.48L597.19 2.48Q597.19 2.06 597.00 1.67L597.00 1.67ZM608.84 1.31Q608.53 1.36 608.28 1.48L608.28 1.48Q608.00 1.61 607.97 1.70L607.97 1.70Q607.78 2.55 607.33 4.25L607.33 4.25Q606.87 5.94 606.68 6.80L606.68 6.80Q606.03 6.88 605.35 7.03L605.35 7.03Q605.55 6.04 605.96 4.31L605.96 4.31Q606.43 2.37 606.59 1.59L606.59 1.59Q606.65 1.34 606.01 1.46L606.01 1.46Q605.71 1.51 605.46 1.63L605.46 1.63Q605.18 1.76 605.16 1.85L605.16 1.85Q604.99 2.61 604.51 4.64L604.51 4.64Q604.09 6.41 603.88 7.44L603.88 7.44Q603.74 7.49 603.71 7.50L603.71 7.50Q603.55 7.55 603.39 7.66L603.39 7.66Q603.13 7.82 603.27 7.91L603.27 7.91Q603.44 8.01 603.78 7.94L603.78 7.94Q603.46 9.65 603.33 11.08L603.33 11.08Q603.33 11.15 603.55 11.16L603.55 11.16Q603.76 11.17 604.04 11.12L604.04 11.12Q604.77 10.98 604.79 10.69L604.79 10.69Q604.91 9.26 605.25 7.53L605.25 7.53Q605.45 7.49 605.80 7.42L605.80 7.42Q606.18 7.36 606.55 7.33L606.55 7.33Q606.09 9.44 606.00 11.13L606.00 11.13Q606.00 11.20 606.22 11.21L606.22 11.21Q606.44 11.22 606.72 11.17L606.72 11.17Q607.45 11.03 607.46 10.74L607.46 10.74Q607.54 9.17 607.95 7.25L607.95 7.25Q608.29 7.18 608.55 7.02L608.55 7.02Q608.73 6.91 608.70 6.82L608.70 6.82Q608.67 6.72 608.47 6.71L608.47 6.71Q608.30 6.71 608.07 6.71L608.07 6.71Q608.28 5.79 608.74 4.07L608.74 4.07Q609.22 2.28 609.42 1.44L609.42 1.44Q609.47 1.19 608.84 1.31L608.84 1.31ZM630.81 2.35Q629.86 2.17 628.85 2.15L628.85 2.15Q628.76 2.03 628.28 2.11L628.28 2.11Q628.18 2.13 628.07 2.16L628.07 2.16Q627.00 2.22 625.96 2.46L625.96 2.46Q625.22 2.63 625.29 2.88L625.29 2.88Q625.34 3.08 626.06 2.91L626.06 2.91Q626.07 2.91 626.08 2.90L626.08 2.90Q626.10 2.90 626.11 2.89L626.11 2.89Q626.19 2.88 626.34 2.85L626.34 2.85Q626.51 2.82 626.73 2.80L626.73 2.80Q627.02 2.76 627.35 2.75L627.35 2.75Q625.93 7.40 625.54 10.96L625.54 10.96Q625.53 11.02 625.75 11.03L625.75 11.03Q625.97 11.04 626.25 10.99L626.25 10.99Q626.97 10.86 627.00 10.56L627.00 10.56Q627.38 7.19 628.69 2.78L628.69 2.78Q629.17 2.82 629.60 2.91L629.60 2.91Q630.04 2.99 630.63 2.72L630.63 2.72Q630.79 2.65 630.88 2.54L630.88 2.54Q631.03 2.39 630.81 2.35L630.81 2.35ZM641.76 1.31Q641.45 1.36 641.20 1.48L641.20 1.48Q640.92 1.61 640.90 1.70L640.90 1.70Q640.70 2.55 640.25 4.25L640.25 4.25Q639.80 5.94 639.60 6.80L639.60 6.80Q638.95 6.88 638.27 7.03L638.27 7.03Q638.48 6.04 638.89 4.31L638.89 4.31Q639.35 2.37 639.52 1.59L639.52 1.59Q639.57 1.34 638.93 1.46L638.93 1.46Q638.63 1.51 638.38 1.63L638.38 1.63Q638.10 1.76 638.08 1.85L638.08 1.85Q637.91 2.61 637.43 4.64L637.43 4.64Q637.01 6.41 636.80 7.44L636.80 7.44Q636.67 7.49 636.63 7.50L636.63 7.50Q636.47 7.55 636.31 7.66L636.31 7.66Q636.06 7.82 636.19 7.91L636.19 7.91Q636.36 8.01 636.70 7.94L636.70 7.94Q636.38 9.65 636.25 11.08L636.25 11.08Q636.25 11.15 636.47 11.16L636.47 11.16Q636.69 11.17 636.97 11.12L636.97 11.12Q637.69 10.98 637.71 10.69L637.71 10.69Q637.83 9.26 638.17 7.53L638.17 7.53Q638.37 7.49 638.72 7.42L638.72 7.42Q639.10 7.36 639.47 7.33L639.47 7.33Q639.01 9.44 638.92 11.13L638.92 11.13Q638.92 11.20 639.15 11.21L639.15 11.21Q639.36 11.22 639.64 11.17L639.64 11.17Q640.37 11.03 640.38 10.74L640.38 10.74Q640.47 9.17 640.88 7.25L640.88 7.25Q641.21 7.18 641.47 7.02L641.47 7.02Q641.65 6.91 641.62 6.82L641.62 6.82Q641.59 6.72 641.39 6.71L641.39 6.71Q641.22 6.71 640.99 6.71L640.99 6.71Q641.20 5.79 641.66 4.07L641.66 4.07Q642.14 2.28 642.34 1.44L642.34 1.44Q642.39 1.19 641.76 1.31L641.76 1.31ZM652.09 5.20Q651.97 6.64 651.70 7.92L651.70 7.92Q651.29 9.88 650.52 10.64L650.52 10.64Q650.43 10.55 650.36 10.38L650.36 10.38Q650.17 9.97 650.19 9.03L650.19 9.03Q650.21 7.34 650.79 5.48L650.79 5.48Q651.29 3.85 651.98 3.01L651.98 3.01Q652.06 3.25 652.11 3.62L652.11 3.62Q652.18 4.21 652.09 5.20L652.09 5.20ZM653.02 1.96Q652.82 1.79 652.08 2.05L652.08 2.05Q651.58 2.24 651.60 2.39L651.60 2.39Q651.35 2.48 651.17 2.63L651.17 2.63Q650.19 3.40 649.52 5.22L649.52 5.22Q648.98 6.70 648.79 8.50L648.79 8.50Q648.70 9.28 648.73 9.92L648.73 9.92Q648.77 10.77 649.13 11.13L649.13 11.13Q649.32 11.31 649.75 11.33L649.75 11.33Q650.29 11.36 651.12 11.02L651.12 11.02Q651.80 10.74 652.32 9.94L652.32 9.94Q652.79 9.21 653.11 7.85L653.11 7.85Q653.32 6.94 653.44 5.84L653.44 5.84Q653.60 4.44 653.60 3.78L653.60 3.78Q653.59 2.45 653.02 1.96L653.02 1.96ZM664.92 2.21Q664.28 2.38 664.25 2.63L664.25 2.63Q664.19 3.01 664.04 4.51L664.04 4.51Q663.91 5.69 663.78 6.41L663.78 6.41Q663.37 8.57 662.27 9.83L662.27 9.83Q662.12 10.00 662.01 10.12L662.01 10.12Q661.75 9.61 661.71 8.40L661.71 8.40Q661.66 6.90 662.58 4.58L662.58 4.58Q663.26 2.88 663.43 2.40L663.43 2.40Q663.52 2.15 662.85 2.26L662.85 2.26Q662.07 2.41 661.99 2.66L661.99 2.66Q661.82 3.12 661.27 4.53L661.27 4.53Q660.80 5.71 660.59 6.43L660.59 6.43Q659.93 8.66 660.50 10.36L660.50 10.36Q660.60 10.68 660.80 10.83L660.80 10.83Q661.03 11.03 661.67 10.92L661.67 10.92Q662.68 10.73 663.59 9.71L663.59 9.71Q664.76 8.41 665.19 6.34L665.19 6.34Q665.35 5.55 665.49 4.29L665.49 4.29Q665.66 2.58 665.71 2.24L665.71 2.24Q665.72 2.11 665.34 2.14L665.34 2.14Q665.09 2.16 664.92 2.21L664.92 2.21ZM675.34 7.83L675.34 7.83Q675.36 7.83 675.38 7.81L675.38 7.81Q675.36 7.83 675.34 7.83L675.34 7.83ZM676.90 1.67Q676.53 0.90 675.17 1.50L675.17 1.50Q674.60 1.75 674.04 2.55L674.04 2.55Q673.57 3.20 673.15 4.06L673.15 4.06Q672.23 5.91 671.95 8.21L671.95 8.21Q671.83 9.15 671.82 9.80L671.82 9.80Q671.79 10.74 672.23 11.05L672.23 11.05Q672.68 11.39 673.82 11.00L673.82 11.00Q674.47 10.77 675.06 10.19L675.06 10.19Q675.58 9.71 675.89 8.87L675.89 8.87Q676.03 8.48 676.09 8.11L676.09 8.11Q676.15 7.72 676.05 7.57L676.05 7.57Q675.87 7.29 675.20 7.43L675.20 7.43Q674.47 7.58 673.86 8.07L673.86 8.07Q673.68 8.21 673.89 8.27L673.89 8.27Q674.04 8.31 674.20 8.30L674.20 8.30Q674.43 8.28 674.66 8.21L674.66 8.21Q674.67 8.48 674.48 9.04L674.48 9.04Q674.29 9.59 674.03 9.99L674.03 9.99Q673.98 10.06 673.96 10.08L673.96 10.08Q673.85 10.21 673.75 10.31L673.75 10.31Q673.66 10.40 673.53 10.51L673.53 10.51Q673.48 10.45 673.43 10.36L673.43 10.36Q673.31 10.13 673.28 9.65L673.28 9.65Q673.26 9.36 673.37 8.16L673.37 8.16Q673.56 5.98 674.51 3.95L674.51 3.95Q675.04 2.84 675.51 2.21L675.51 2.21Q675.63 2.51 675.64 2.81L675.64 2.81Q675.66 3.19 675.47 3.34L675.47 3.34Q675.29 3.47 675.50 3.53L675.50 3.53Q675.65 3.58 675.81 3.57L675.81 3.57Q676.41 3.51 676.79 3.22L676.79 3.22Q677.09 2.98 677.09 2.48L677.09 2.48Q677.09 2.06 676.90 1.67L676.90 1.67ZM688.73 1.31Q688.43 1.36 688.17 1.48L688.17 1.48Q687.89 1.61 687.87 1.70L687.87 1.70Q687.67 2.55 687.22 4.25L687.22 4.25Q686.77 5.94 686.57 6.80L686.57 6.80Q685.92 6.88 685.25 7.03L685.25 7.03Q685.45 6.04 685.86 4.31L685.86 4.31Q686.33 2.37 686.49 1.59L686.49 1.59Q686.55 1.34 685.91 1.46L685.91 1.46Q685.61 1.51 685.36 1.63L685.36 1.63Q685.08 1.76 685.06 1.85L685.06 1.85Q684.89 2.61 684.41 4.64L684.41 4.64Q683.99 6.41 683.78 7.44L683.78 7.44Q683.64 7.49 683.61 7.50L683.61 7.50Q683.45 7.55 683.29 7.66L683.29 7.66Q683.03 7.82 683.17 7.91L683.17 7.91Q683.34 8.01 683.68 7.94L683.68 7.94Q683.35 9.65 683.23 11.08L683.23 11.08Q683.22 11.15 683.45 11.16L683.45 11.16Q683.66 11.17 683.94 11.12L683.94 11.12Q684.67 10.98 684.69 10.69L684.69 10.69Q684.81 9.26 685.15 7.53L685.15 7.53Q685.35 7.49 685.70 7.42L685.70 7.42Q686.08 7.36 686.45 7.33L686.45 7.33Q685.99 9.44 685.90 11.13L685.90 11.13Q685.90 11.20 686.12 11.21L686.12 11.21Q686.33 11.22 686.62 11.17L686.62 11.17Q687.35 11.03 687.36 10.74L687.36 10.74Q687.44 9.17 687.85 7.25L687.85 7.25Q688.19 7.18 688.45 7.02L688.45 7.02Q688.63 6.91 688.60 6.82L688.60 6.82Q688.57 6.72 688.37 6.71L688.37 6.71Q688.19 6.71 687.97 6.71L687.97 6.71Q688.18 5.79 688.64 4.07L688.64 4.07Q689.12 2.28 689.32 1.44L689.32 1.44Q689.37 1.19 688.73 1.31L688.73 1.31ZM700.69 2.35Q699.73 2.17 698.73 2.15L698.73 2.15Q698.63 2.03 698.15 2.11L698.15 2.11Q698.06 2.13 697.94 2.16L697.94 2.16Q696.88 2.22 695.84 2.46L695.84 2.46Q695.10 2.63 695.17 2.88L695.17 2.88Q695.21 3.08 695.94 2.91L695.94 2.91Q695.95 2.91 695.96 2.90L695.96 2.90Q695.97 2.90 695.99 2.89L695.99 2.89Q696.06 2.88 696.22 2.85L696.22 2.85Q696.38 2.82 696.61 2.80L696.61 2.80Q696.90 2.76 697.22 2.75L697.22 2.75Q695.81 7.40 695.41 10.96L695.41 10.96Q695.41 11.02 695.63 11.03L695.63 11.03Q695.84 11.04 696.12 10.99L696.12 10.99Q696.85 10.86 696.88 10.56L696.88 10.56Q697.25 7.19 698.57 2.78L698.57 2.78Q699.04 2.82 699.48 2.91L699.48 2.91Q699.92 2.99 700.51 2.72L700.51 2.72Q700.66 2.65 700.76 2.54L700.76 2.54Q700.90 2.39 700.69 2.35L700.69 2.35ZM712.09 1.59Q710.99 1.45 709.30 1.75L709.30 1.75Q709.31 1.74 709.32 1.70L709.32 1.70Q709.33 1.66 709.33 1.64L709.33 1.64Q709.40 1.39 708.75 1.50L708.75 1.50Q708.45 1.56 708.20 1.67L708.20 1.67Q707.92 1.80 707.90 1.90L707.90 1.90Q707.90 1.88 707.85 2.08L707.85 2.08Q707.66 2.18 707.59 2.30L707.59 2.30Q707.53 2.43 707.75 2.45L707.75 2.45Q706.47 7.25 705.97 10.98L705.97 10.98Q705.95 11.10 706.34 11.07L706.34 11.07Q706.59 11.05 706.76 11.00L706.76 11.00Q707.40 10.83 707.43 10.59L707.43 10.59Q707.65 8.95 708.01 7.16L708.01 7.16Q707.94 7.17 709.00 7.09L709.00 7.09Q709.65 7.05 709.98 6.75L709.98 6.75Q710.14 6.60 709.95 6.54L709.95 6.54Q709.82 6.50 709.64 6.51L709.64 6.51Q708.51 6.60 708.11 6.66L708.11 6.66Q708.53 4.65 709.17 2.24L709.17 2.24Q710.19 2.06 710.88 2.15L710.88 2.15Q711.36 2.21 711.90 1.96L711.90 1.96Q712.04 1.89 712.15 1.78L712.15 1.78Q712.30 1.62 712.09 1.59L712.09 1.59ZM721.87 2.21Q721.23 2.38 721.20 2.63L721.20 2.63Q721.14 3.01 720.99 4.51L720.99 4.51Q720.86 5.69 720.73 6.41L720.73 6.41Q720.32 8.57 719.22 9.83L719.22 9.83Q719.07 10.00 718.96 10.12L718.96 10.12Q718.70 9.61 718.66 8.40L718.66 8.40Q718.61 6.90 719.53 4.58L719.53 4.58Q720.21 2.88 720.38 2.40L720.38 2.40Q720.47 2.15 719.80 2.26L719.80 2.26Q719.02 2.41 718.94 2.66L718.94 2.66Q718.77 3.12 718.22 4.53L718.22 4.53Q717.75 5.71 717.54 6.43L717.54 6.43Q716.88 8.66 717.45 10.36L717.45 10.36Q717.55 10.68 717.75 10.83L717.75 10.83Q717.98 11.03 718.62 10.92L718.62 10.92Q719.63 10.73 720.54 9.71L720.54 9.71Q721.71 8.41 722.14 6.34L722.14 6.34Q722.30 5.55 722.44 4.29L722.44 4.29Q722.61 2.58 722.66 2.24L722.66 2.24Q722.67 2.11 722.29 2.14L722.29 2.14Q722.04 2.16 721.87 2.21L721.87 2.21ZM731.60 11.33Q730.56 11.36 730.12 11.16L730.12 11.16Q730.97 6.57 732.09 2.08L732.09 2.08Q732.16 1.83 731.51 1.95L731.51 1.95Q731.21 2.00 730.95 2.12L730.95 2.12Q730.67 2.25 730.65 2.34L730.65 2.34Q729.53 6.83 728.67 11.47L728.67 11.47Q728.58 11.56 728.65 11.61L728.65 11.61Q728.65 11.63 728.64 11.70L728.64 11.70Q728.64 11.74 728.63 11.78L728.63 11.78Q728.61 11.94 729.25 11.83L729.25 11.83Q729.74 11.95 730.65 11.92L730.65 11.92Q731.26 11.91 731.68 11.65L731.68 11.65Q731.86 11.54 731.84 11.44L731.84 11.44Q731.81 11.33 731.60 11.33L731.60 11.33ZM753.97 2.35Q753.01 2.17 752.01 2.15L752.01 2.15Q751.91 2.03 751.43 2.11L751.43 2.11Q751.34 2.13 751.22 2.16L751.22 2.16Q750.16 2.22 749.12 2.46L749.12 2.46Q748.38 2.63 748.45 2.88L748.45 2.88Q748.49 3.08 749.22 2.91L749.22 2.91Q749.23 2.91 749.24 2.90L749.24 2.90Q749.25 2.90 749.27 2.89L749.27 2.89Q749.34 2.88 749.50 2.85L749.50 2.85Q749.66 2.82 749.89 2.80L749.89 2.80Q750.18 2.76 750.50 2.75L750.50 2.75Q749.09 7.40 748.69 10.96L748.69 10.96Q748.69 11.02 748.91 11.03L748.91 11.03Q749.12 11.04 749.40 10.99L749.40 10.99Q750.13 10.86 750.16 10.56L750.16 10.56Q750.53 7.19 751.85 2.78L751.85 2.78Q752.32 2.82 752.76 2.91L752.76 2.91Q753.20 2.99 753.79 2.72L753.79 2.72Q753.94 2.65 754.04 2.54L754.04 2.54Q754.18 2.39 753.97 2.35L753.97 2.35ZM764.39 1.42Q763.68 1.19 762.49 1.57L762.49 1.57Q760.98 2.06 760.42 3.77L760.42 3.77Q760.07 4.83 760.25 6.11L760.25 6.11Q760.34 6.76 760.61 7.16L760.61 7.16Q760.19 7.38 759.90 7.70L759.90 7.70Q758.90 8.80 759.01 10.01L759.01 10.01Q759.08 10.70 759.55 11.11L759.55 11.11Q759.95 11.44 760.78 11.42L760.78 11.42Q761.61 11.39 762.32 10.95L762.32 10.95Q763.07 10.49 763.37 9.76L763.37 9.76Q763.43 9.61 763.15 9.60L763.15 9.60Q762.98 9.59 762.79 9.63L762.79 9.63Q762.04 9.76 761.93 10.02L761.93 10.02Q761.74 10.51 761.39 10.80L761.39 10.80Q761.37 10.81 761.36 10.82L761.36 10.82Q761.31 10.81 761.30 10.81L761.30 10.81Q761.24 10.79 761.15 10.75L761.15 10.75Q760.99 10.68 760.83 10.52L760.83 10.52Q760.55 10.23 760.47 9.63L760.47 9.63Q760.38 8.83 761.00 7.86L761.00 7.86Q761.09 7.74 761.19 7.62L761.19 7.62Q761.40 7.70 761.67 7.72L761.67 7.72Q762.08 7.74 762.57 7.51L762.57 7.51Q762.99 7.32 762.84 7.18L762.84 7.18Q762.55 6.90 762.13 6.84L762.13 6.84Q762.08 6.79 762.05 6.75L762.05 6.75Q761.84 6.45 761.74 5.89L761.74 5.89Q761.54 4.89 761.73 4.00L761.73 4.00Q762.00 2.70 762.76 2.04L762.76 2.04Q762.82 2.00 762.91 1.93L762.91 1.93Q762.92 1.93 762.92 1.93L762.92 1.93Q763.05 1.94 763.03 1.93L763.03 1.93Q763.61 2.02 763.49 2.62L763.49 2.62Q763.44 2.86 764.07 2.75L764.07 2.75Q764.38 2.69 764.63 2.58L764.63 2.58Q764.91 2.45 764.93 2.36L764.93 2.36Q765.07 1.63 764.39 1.42L764.39 1.42ZM775.87 1.54Q775.43 0.91 774.25 1.20L774.25 1.20Q773.29 1.43 772.65 2.14L772.65 2.14Q771.64 3.26 771.21 5.40L771.21 5.40Q770.92 6.86 770.82 8.67L770.82 8.67Q770.81 9.98 770.94 10.47L770.94 10.47Q771.22 11.44 772.30 11.50L772.30 11.50Q772.93 11.53 773.51 11.27L773.51 11.27Q774.11 10.99 774.48 10.51L774.48 10.51Q774.85 10.02 775.19 8.89L775.19 8.89Q775.26 8.64 774.61 8.76L774.61 8.76Q774.31 8.81 774.05 8.93L774.05 8.93Q773.78 9.06 773.75 9.15L773.75 9.15Q773.51 9.99 773.23 10.48L773.23 10.48Q773.12 10.68 772.99 10.83L772.99 10.83Q772.42 10.58 772.30 9.66L772.30 9.66Q772.27 9.42 772.28 8.20L772.28 8.20Q772.38 6.41 772.69 4.92L772.69 4.92Q773.16 2.75 774.19 1.80L774.19 1.80Q774.20 1.79 774.23 1.76L774.23 1.76Q774.59 2.01 774.69 2.75L774.69 2.75Q774.76 3.36 774.55 4.29L774.55 4.29Q774.22 5.76 774.21 5.80L774.21 5.80Q774.19 5.92 774.57 5.89L774.57 5.89Q774.83 5.87 775.00 5.82L775.00 5.82Q775.63 5.65 775.67 5.41L775.67 5.41Q775.72 5.07 775.88 4.41L775.88 4.41Q776.04 3.74 776.10 3.40L776.10 3.40Q776.29 2.17 775.87 1.54L775.87 1.54ZM787.93 1.31Q787.62 1.36 787.37 1.48L787.37 1.48Q787.09 1.61 787.07 1.70L787.07 1.70Q786.87 2.55 786.42 4.25L786.42 4.25Q785.97 5.94 785.77 6.80L785.77 6.80Q785.12 6.88 784.44 7.03L784.44 7.03Q784.65 6.04 785.06 4.31L785.06 4.31Q785.52 2.37 785.69 1.59L785.69 1.59Q785.74 1.34 785.11 1.46L785.11 1.46Q784.81 1.51 784.55 1.63L784.55 1.63Q784.27 1.76 784.25 1.85L784.25 1.85Q784.08 2.61 783.60 4.64L783.60 4.64Q783.19 6.41 782.97 7.44L782.97 7.44Q782.84 7.49 782.80 7.50L782.80 7.50Q782.65 7.55 782.48 7.66L782.48 7.66Q782.23 7.82 782.37 7.91L782.37 7.91Q782.54 8.01 782.87 7.94L782.87 7.94Q782.55 9.65 782.43 11.08L782.43 11.08Q782.42 11.15 782.65 11.16L782.65 11.16Q782.86 11.17 783.14 11.12L783.14 11.12Q783.86 10.98 783.88 10.69L783.88 10.69Q784.01 9.26 784.34 7.53L784.34 7.53Q784.55 7.49 784.90 7.42L784.90 7.42Q785.27 7.36 785.65 7.33L785.65 7.33Q785.18 9.44 785.09 11.13L785.09 11.13Q785.09 11.20 785.32 11.21L785.32 11.21Q785.53 11.22 785.81 11.17L785.81 11.17Q786.54 11.03 786.56 10.74L786.56 10.74Q786.64 9.17 787.05 7.25L787.05 7.25Q787.38 7.18 787.64 7.02L787.64 7.02Q787.82 6.91 787.79 6.82L787.79 6.82Q787.77 6.72 787.56 6.71L787.56 6.71Q787.39 6.71 787.17 6.71L787.17 6.71Q787.38 5.79 787.83 4.07L787.83 4.07Q788.31 2.28 788.51 1.44L788.51 1.44Q788.57 1.19 787.93 1.31L787.93 1.31ZM801.00 0.74Q800.69 0.79 800.44 0.91L800.44 0.91Q800.17 1.04 800.14 1.13L800.14 1.13Q799.26 3.96 798.64 7.39L798.64 7.39Q798.55 6.88 798.44 6.21L798.44 6.21Q798.14 4.44 798.10 4.05L798.10 4.05Q797.95 2.77 797.75 2.37L797.75 2.37Q797.75 2.37 797.74 2.35L797.74 2.35L797.75 2.34Q797.75 2.34 797.75 2.33L797.75 2.33Q797.79 2.08 797.16 2.20L797.16 2.20Q796.86 2.26 796.61 2.37L796.61 2.37Q796.32 2.51 796.30 2.60L796.30 2.60Q796.12 3.71 795.48 6.73L795.48 6.73Q794.93 9.34 794.73 10.89L794.73 10.89Q794.71 11.01 795.09 10.98L795.09 10.98Q795.35 10.96 795.52 10.91L795.52 10.91Q796.16 10.74 796.19 10.50L796.19 10.50Q796.39 8.97 796.94 6.38L796.94 6.38Q796.97 6.54 796.97 6.61L796.97 6.61Q797.19 7.90 797.37 8.95L797.37 8.95Q797.63 10.45 797.86 11.09L797.86 11.09Q797.91 11.24 798.25 11.21L798.25 11.21Q798.57 11.18 798.90 11.05L798.90 11.05Q799.49 10.89 799.52 10.65L799.52 10.65Q800.30 5.00 801.58 0.87L801.58 0.87Q801.66 0.62 801.00 0.74L801.00 0.74ZM810.75 5.20Q810.63 6.64 810.36 7.92L810.36 7.92Q809.95 9.88 809.18 10.64L809.18 10.64Q809.09 10.55 809.01 10.38L809.01 10.38Q808.83 9.97 808.84 9.03L808.84 9.03Q808.87 7.34 809.44 5.48L809.44 5.48Q809.94 3.85 810.64 3.01L810.64 3.01Q810.71 3.25 810.76 3.62L810.76 3.62Q810.83 4.21 810.75 5.20L810.75 5.20ZM811.68 1.96Q811.47 1.79 810.74 2.05L810.74 2.05Q810.24 2.24 810.26 2.39L810.26 2.39Q810.00 2.48 809.83 2.63L809.83 2.63Q808.84 3.40 808.18 5.22L808.18 5.22Q807.63 6.70 807.44 8.50L807.44 8.50Q807.36 9.28 807.39 9.92L807.39 9.92Q807.43 10.77 807.79 11.13L807.79 11.13Q807.97 11.31 808.40 11.33L808.40 11.33Q808.94 11.36 809.77 11.02L809.77 11.02Q810.46 10.74 810.97 9.94L810.97 9.94Q811.45 9.21 811.76 7.85L811.76 7.85Q811.97 6.94 812.10 5.84L812.10 5.84Q812.26 4.44 812.26 3.78L812.26 3.78Q812.25 2.45 811.68 1.96L811.68 1.96ZM821.50 11.33Q820.46 11.36 820.02 11.16L820.02 11.16Q820.87 6.57 821.99 2.08L821.99 2.08Q822.06 1.83 821.41 1.95L821.41 1.95Q821.11 2.00 820.85 2.12L820.85 2.12Q820.57 2.25 820.55 2.34L820.55 2.34Q819.43 6.83 818.57 11.47L818.57 11.47Q818.48 11.56 818.55 11.61L818.55 11.61Q818.55 11.63 818.54 11.70L818.54 11.70Q818.54 11.74 818.53 11.78L818.53 11.78Q818.51 11.94 819.15 11.83L819.15 11.83Q819.64 11.95 820.55 11.92L820.55 11.92Q821.16 11.91 821.58 11.65L821.58 11.65Q821.76 11.54 821.74 11.44L821.74 11.44Q821.71 11.33 821.50 11.33L821.50 11.33ZM832.23 5.20Q832.10 6.64 831.84 7.92L831.84 7.92Q831.43 9.88 830.66 10.64L830.66 10.64Q830.57 10.55 830.49 10.38L830.49 10.38Q830.31 9.97 830.32 9.03L830.32 9.03Q830.35 7.34 830.92 5.48L830.92 5.48Q831.42 3.85 832.12 3.01L832.12 3.01Q832.19 3.25 832.24 3.62L832.24 3.62Q832.31 4.21 832.23 5.20L832.23 5.20ZM833.16 1.96Q832.95 1.79 832.21 2.05L832.21 2.05Q831.71 2.24 831.74 2.39L831.74 2.39Q831.48 2.48 831.30 2.63L831.30 2.63Q830.32 3.40 829.66 5.22L829.66 5.22Q829.11 6.70 828.92 8.50L828.92 8.50Q828.84 9.28 828.86 9.92L828.86 9.92Q828.91 10.77 829.27 11.13L829.27 11.13Q829.45 11.31 829.88 11.33L829.88 11.33Q830.42 11.36 831.25 11.02L831.25 11.02Q831.93 10.74 832.45 9.94L832.45 9.94Q832.92 9.21 833.24 7.85L833.24 7.85Q833.45 6.94 833.57 5.84L833.57 5.84Q833.74 4.44 833.74 3.78L833.74 3.78Q833.72 2.45 833.16 1.96L833.16 1.96ZM843.67 7.83L843.67 7.83Q843.68 7.83 843.71 7.81L843.71 7.81Q843.68 7.83 843.67 7.83L843.67 7.83ZM845.23 1.67Q844.85 0.90 843.50 1.50L843.50 1.50Q842.93 1.75 842.37 2.55L842.37 2.55Q841.90 3.20 841.48 4.06L841.48 4.06Q840.55 5.91 840.27 8.21L840.27 8.21Q840.16 9.15 840.14 9.80L840.14 9.80Q840.12 10.74 840.55 11.05L840.55 11.05Q841.01 11.39 842.15 11.00L842.15 11.00Q842.80 10.77 843.39 10.19L843.39 10.19Q843.90 9.71 844.22 8.87L844.22 8.87Q844.36 8.48 844.42 8.11L844.42 8.11Q844.48 7.72 844.38 7.57L844.38 7.57Q844.20 7.29 843.53 7.43L843.53 7.43Q842.80 7.58 842.19 8.07L842.19 8.07Q842.01 8.21 842.21 8.27L842.21 8.27Q842.37 8.31 842.53 8.30L842.53 8.30Q842.76 8.28 842.99 8.21L842.99 8.21Q843.00 8.48 842.81 9.04L842.81 9.04Q842.62 9.59 842.36 9.99L842.36 9.99Q842.31 10.06 842.28 10.08L842.28 10.08Q842.17 10.21 842.08 10.31L842.08 10.31Q841.99 10.40 841.86 10.51L841.86 10.51Q841.81 10.45 841.76 10.36L841.76 10.36Q841.63 10.13 841.61 9.65L841.61 9.65Q841.59 9.36 841.70 8.16L841.70 8.16Q841.89 5.98 842.84 3.95L842.84 3.95Q843.36 2.84 843.84 2.21L843.84 2.21Q843.96 2.51 843.97 2.81L843.97 2.81Q843.99 3.19 843.79 3.34L843.79 3.34Q843.62 3.47 843.83 3.53L843.83 3.53Q843.98 3.58 844.14 3.57L844.14 3.57Q844.74 3.51 845.11 3.22L845.11 3.22Q845.42 2.98 845.42 2.48L845.42 2.48Q845.42 2.06 845.23 1.67L845.23 1.67ZM857.70 1.12Q857.66 0.90 856.93 1.07L856.93 1.07Q856.19 1.25 856.24 1.51L856.24 1.51Q856.42 2.73 856.19 4.12L856.19 4.12Q855.93 5.76 855.18 6.75L855.18 6.75Q855.03 6.95 854.77 7.16L854.77 7.16Q854.70 7.23 854.59 7.29L854.59 7.29Q854.60 7.29 854.52 7.34L854.52 7.34L854.51 7.34Q854.51 7.34 854.51 7.34L854.51 7.34Q854.44 7.36 854.37 7.38L854.37 7.38L854.36 7.37Q854.36 7.37 854.35 7.37L854.35 7.37Q854.31 7.36 854.25 7.35L854.25 7.35Q854.24 7.35 854.21 7.33L854.21 7.33Q854.21 7.33 854.18 7.33L854.18 7.33Q853.59 7.06 853.60 5.83L853.60 5.83Q853.60 4.47 854.56 1.59L854.56 1.59Q854.64 1.34 853.97 1.46L853.97 1.46Q853.20 1.60 853.12 1.85L853.12 1.85Q852.25 4.44 852.15 5.87L852.15 5.87Q852.05 7.12 852.56 7.65L852.56 7.65Q852.84 7.94 853.45 7.96L853.45 7.96Q853.59 7.97 853.75 7.96L853.75 7.96Q853.69 8.59 853.17 10.68L853.17 10.68Q853.10 10.94 853.75 10.82L853.75 10.82Q854.05 10.77 854.31 10.65L854.31 10.65Q854.59 10.52 854.61 10.42L854.61 10.42Q855.15 8.28 855.21 7.59L855.21 7.59Q855.25 7.57 855.26 7.57L855.26 7.57Q856.84 6.90 857.46 4.67L857.46 4.67Q857.96 2.84 857.70 1.12L857.70 1.12ZM864.55 10.22Q864.58 10.29 865.05 11.23L865.05 11.23Q865.16 11.44 865.84 11.25L865.84 11.25Q866.05 11.20 866.24 11.11L866.24 11.11Q866.57 10.96 866.52 10.84L866.52 10.84Q866.04 9.91 866.01 9.83L866.01 9.83Q865.92 9.63 865.22 9.81L865.22 9.81Q864.46 10.01 864.55 10.22L864.55 10.22Z"></path></g></svg>